<svg width="30" height="32" viewBox="0 0 30 32" fill="none" xmlns="http://www.w3.org/2000/svg">
<path d="M28.9531 9.84375H0.796875C0.356801 9.84375 0 9.51318 0 9.10547V6.89062C0 5.25964 1.42707 3.9375 3.1875 3.9375H6.375V0.738281C6.375 0.330565 6.7318 0 7.17188 0H9.82812C10.2682 0 10.625 0.330565 10.625 0.738281V3.9375H19.125V0.738281C19.125 0.330565 19.4818 0 19.9219 0H22.5781C23.0182 0 23.375 0.330565 23.375 0.738281V3.9375H26.5625C28.3229 3.9375 29.75 5.25964 29.75 6.89062V9.10547C29.75 9.51318 29.3932 9.84375 28.9531 9.84375ZM0.796875 11.8125H28.9531C29.3932 11.8125 29.75 12.1431 29.75 12.5508V28.5469C29.75 30.1779 28.3229 31.5 26.5625 31.5H3.1875C1.42707 31.5 0 30.1779 0 28.5469V12.5508C0 12.1431 0.356801 11.8125 0.796875 11.8125ZM22.9298 17.7155L21.0592 15.9683C20.7493 15.6789 20.2447 15.677 19.9323 15.9642L12.8908 22.4354L9.83742 19.5837C9.5275 19.2942 9.02288 19.2923 8.71044 19.5795L6.8247 21.3126C6.51226 21.5998 6.5102 22.0672 6.82019 22.3567L12.3054 27.4797C12.6153 27.7692 13.1199 27.7711 13.4323 27.4839L22.9253 18.7595C23.2377 18.4724 23.2398 18.005 22.9298 17.7155Z" fill="#C500D0"/>
</svg>
