<svg width="66" height="56" viewBox="0 0 66 56" fill="none" xmlns="http://www.w3.org/2000/svg">
<path d="M65.5 38C65.5 47.9411 57.4411 56 47.5 56L20.5 56C17.7386 56 15.5 53.7614 15.5 51L15.5 17C15.5 11.4772 19.9772 7 25.5 7L60.5 7C63.2614 7 65.5 9.23858 65.5 12L65.5 38Z" fill="#FDD3FF" fill-opacity="0.6"/>
<path d="M27.4163 19.0109C27.1043 19.0109 26.8506 18.7576 26.8506 18.4452V17.4839C26.8506 17.1719 27.1039 16.9182 27.4163 16.9182C27.7283 16.9182 27.982 17.1715 27.982 17.4839V18.4452C27.982 18.7576 27.7284 19.0109 27.4163 19.0109Z" fill="#C500D0"/>
<path d="M25.0381 19.0109C24.7261 19.0109 24.4724 18.7576 24.4724 18.4452V17.4839C24.4724 17.1719 24.7257 16.9182 25.0381 16.9182C25.3501 16.9182 25.6038 17.1715 25.6038 17.4839V18.4452C25.6034 18.7576 25.3505 19.0109 25.0381 19.0109Z" fill="#C500D0"/>
<path d="M22.66 19.0109C22.348 19.0109 22.0944 18.7576 22.0944 18.4452V17.4839C22.0944 17.1719 22.3476 16.9182 22.66 16.9182C22.9721 16.9182 23.2257 17.1715 23.2257 17.4839V18.4452C23.2257 18.7576 22.9725 19.0109 22.66 19.0109Z" fill="#C500D0"/>
<path d="M27.4163 22.9421C27.1043 22.9421 26.8506 22.6889 26.8506 22.3765V21.4155C26.8506 21.1035 27.1039 20.8499 27.4163 20.8499C27.7283 20.8499 27.982 21.1031 27.982 21.4155V22.3765C27.982 22.6889 27.7284 22.9421 27.4163 22.9421Z" fill="#C500D0"/>
<path d="M25.0381 22.9421C24.7261 22.9421 24.4724 22.6889 24.4724 22.3765V21.4155C24.4724 21.1035 24.7257 20.8499 25.0381 20.8499C25.3501 20.8499 25.6038 21.1031 25.6038 21.4155V22.3765C25.6034 22.6889 25.3505 22.9421 25.0381 22.9421Z" fill="#C500D0"/>
<path d="M22.66 22.9421C22.348 22.9421 22.0944 22.6889 22.0944 22.3765V21.4155C22.0944 21.1035 22.3476 20.8499 22.66 20.8499C22.9721 20.8499 23.2257 21.1031 23.2257 21.4155V22.3765C23.2257 22.6889 22.9725 22.9421 22.66 22.9421Z" fill="#C500D0"/>
<path d="M27.4163 26.8734C27.1043 26.8734 26.8506 26.6202 26.8506 26.3078V25.3464C26.8506 25.0344 27.1039 24.7808 27.4163 24.7808C27.7283 24.7808 27.982 25.034 27.982 25.3464V26.3078C27.982 26.6202 27.7284 26.8734 27.4163 26.8734Z" fill="#C500D0"/>
<path d="M25.0381 26.8734C24.7261 26.8734 24.4724 26.6202 24.4724 26.3078V25.3464C24.4724 25.0344 24.7257 24.7808 25.0381 24.7808C25.3501 24.7808 25.6038 25.034 25.6038 25.3464V26.3078C25.6034 26.6202 25.3505 26.8734 25.0381 26.8734Z" fill="#C500D0"/>
<path d="M22.66 26.8734C22.348 26.8734 22.0944 26.6202 22.0944 26.3078V25.3464C22.0944 25.0344 22.3476 24.7808 22.66 24.7808C22.9721 24.7808 23.2257 25.034 23.2257 25.3464V26.3078C23.2257 26.6202 22.9725 26.8734 22.66 26.8734Z" fill="#C500D0"/>
<path d="M27.4163 30.8039C27.1043 30.8039 26.8506 30.5506 26.8506 30.2382V29.2769C26.8506 28.9648 27.1039 28.7112 27.4163 28.7112C27.7283 28.7112 27.982 28.9644 27.982 29.2769V30.2382C27.982 30.5506 27.7284 30.8039 27.4163 30.8039Z" fill="#C500D0"/>
<path d="M25.0381 30.8039C24.7261 30.8039 24.4724 30.5506 24.4724 30.2382V29.2769C24.4724 28.9648 24.7257 28.7112 25.0381 28.7112C25.3501 28.7112 25.6038 28.9644 25.6038 29.2769V30.2382C25.6034 30.5506 25.3505 30.8039 25.0381 30.8039Z" fill="#C500D0"/>
<path d="M22.66 30.8039C22.348 30.8039 22.0944 30.5506 22.0944 30.2382V29.2769C22.0944 28.9648 22.3476 28.7112 22.66 28.7112C22.9721 28.7112 23.2257 28.9644 23.2257 29.2769V30.2382C23.2257 30.5506 22.9725 30.8039 22.66 30.8039Z" fill="#C500D0"/>
<path d="M27.4163 34.735C27.1043 34.735 26.8506 34.4817 26.8506 34.1693V33.2084C26.8506 32.8964 27.1039 32.6427 27.4163 32.6427C27.7283 32.6427 27.982 32.896 27.982 33.2084V34.1693C27.982 34.4813 27.7284 34.735 27.4163 34.735Z" fill="#C500D0"/>
<path d="M25.0381 34.735C24.7261 34.735 24.4724 34.4817 24.4724 34.1693V33.2084C24.4724 32.8964 24.7257 32.6427 25.0381 32.6427C25.3501 32.6427 25.6038 32.896 25.6038 33.2084V34.1693C25.6034 34.4813 25.3505 34.735 25.0381 34.735Z" fill="#C500D0"/>
<path d="M22.66 34.735C22.348 34.735 22.0944 34.4817 22.0944 34.1693L22.0948 33.2084C22.0948 32.8964 22.348 32.6427 22.6604 32.6427C22.9725 32.6427 23.2261 32.896 23.2261 33.2084V34.1693C23.2257 34.4813 22.9725 34.735 22.66 34.735Z" fill="#C500D0"/>
<path d="M6.50047 38.6472C6.50047 38.9592 6.75372 39.2129 7.06615 39.2129H41.5139C41.8259 39.2129 42.0796 38.9596 42.0796 38.6472C42.0796 38.3352 41.8263 38.0815 41.5139 38.0815H40.4682V21.8402C40.4682 21.5282 40.215 21.2746 39.9025 21.2746L30.6668 21.2749V9.56582C30.6668 9.3678 30.5635 9.18477 30.3946 9.0822C30.2262 8.97925 30.0156 8.97294 29.8404 9.06405L19.3401 14.531C19.1527 14.6285 19.0359 14.8218 19.0359 15.0328V25.2605H8.87388C8.56186 25.2605 8.3082 25.5137 8.3082 25.8262V38.0816H7.06489C6.75287 38.0812 6.5 38.3345 6.5 38.6469L6.50047 38.6472ZM30.667 29.8423H39.3374V38.082L30.667 38.0816V29.8423ZM30.667 25.9114H39.3374V28.7114L30.667 28.711V25.9114ZM30.667 22.4057H39.3374V24.7809H30.667V22.4057ZM20.1667 15.3763L29.5353 10.4982V38.0811H20.1667V15.3763ZM12.2359 33.5636C12.2359 32.3896 13.166 31.4342 14.3096 31.4342C15.4531 31.4342 16.3837 32.3892 16.3837 33.5636V38.0818H12.2359V33.5636ZM9.43952 26.3916H19.0358V38.0816H17.515V33.5634C17.515 31.7657 16.0776 30.3031 14.3096 30.3031C12.5424 30.3031 11.105 31.7653 11.105 33.5634V38.0816H9.43952V26.3916Z" fill="#C500D0"/>
</svg>
