<svg width="39" height="28" viewBox="0 0 39 28" fill="none" xmlns="http://www.w3.org/2000/svg">
<path d="M11.7 14C15.472 14 18.525 10.8688 18.525 7C18.525 3.13125 15.472 0 11.7 0C7.92797 0 4.875 3.13125 4.875 7C4.875 10.8688 7.92797 14 11.7 14ZM16.38 16H15.8742C14.6067 16.625 13.1991 17 11.7 17C10.2009 17 8.79938 16.625 7.52578 16H7.02C3.14438 16 0 19.225 0 23.2V25C0 26.6562 1.31016 28 2.925 28H20.475C22.0898 28 23.4 26.6562 23.4 25V23.2C23.4 19.225 20.2556 16 16.38 16ZM29.25 14C32.4797 14 35.1 11.3125 35.1 8C35.1 4.6875 32.4797 2 29.25 2C26.0203 2 23.4 4.6875 23.4 8C23.4 11.3125 26.0203 14 29.25 14ZM32.175 16H31.9434C31.0964 16.3 30.2006 16.5 29.25 16.5C28.2994 16.5 27.4036 16.3 26.5566 16H26.325C25.0819 16 23.9362 16.3687 22.9308 16.9625C24.4177 18.6062 25.35 20.7875 25.35 23.2V25.6C25.35 25.7375 25.3195 25.8688 25.3134 26H36.075C37.6898 26 39 24.6562 39 23C39 19.1312 35.947 16 32.175 16Z" fill="#C500D0"/>
</svg>
