<svg width="32" height="32" viewBox="0 0 32 32" fill="none" xmlns="http://www.w3.org/2000/svg">
<path d="M27.1663 10.4819L21.5312 4.835C21.1588 4.46161 20.6533 4.25141 20.1259 4.25059C19.5985 4.24977 19.0924 4.4584 18.7188 4.83063L18.7144 4.835L14 9.555V26.5L27.1663 13.3062C27.5401 12.9313 27.75 12.4235 27.75 11.8941C27.75 11.3646 27.5401 10.8568 27.1663 10.4819ZM30 20H23.3181L11.6675 31.6569C11.5387 31.7863 11.3863 31.8806 11.25 32H30C30.5304 32 31.0391 31.7893 31.4142 31.4142C31.7893 31.0391 32 30.5304 32 30V22C32 21.4696 31.7893 20.9609 31.4142 20.5858C31.0391 20.2107 30.5304 20 30 20ZM12 2C12 1.46957 11.7893 0.960859 11.4142 0.585786C11.0391 0.210714 10.5304 0 10 0L2 0C1.46957 0 0.960859 0.210714 0.585786 0.585786C0.210714 0.960859 0 1.46957 0 2L0 26C0 27.5913 0.632141 29.1174 1.75736 30.2426C2.88258 31.3679 4.4087 32 6 32C7.5913 32 9.11742 31.3679 10.2426 30.2426C11.3679 29.1174 12 27.5913 12 26V2ZM6 27.5C5.70333 27.5 5.41332 27.412 5.16664 27.2472C4.91997 27.0824 4.72771 26.8481 4.61418 26.574C4.50065 26.2999 4.47094 25.9983 4.52882 25.7074C4.5867 25.4164 4.72956 25.1491 4.93934 24.9393C5.14912 24.7296 5.41639 24.5867 5.70736 24.5288C5.99834 24.4709 6.29994 24.5007 6.57403 24.6142C6.84811 24.7277 7.08238 24.92 7.2472 25.1666C7.41203 25.4133 7.5 25.7033 7.5 26C7.5 26.3978 7.34196 26.7794 7.06066 27.0607C6.77936 27.342 6.39782 27.5 6 27.5ZM8 16H4V12H8V16ZM8 8H4V4H8V8Z" fill="#C500D0"/>
</svg>
