<svg width="547" height="122" viewBox="0 0 547 122" fill="none" xmlns="http://www.w3.org/2000/svg">
<g clip-path="url(#clip0_29_91)">
<path d="M-10.8676 55.8346C-10.974 55.6096 -10.9385 55.4115 -10.761 55.2402C-10.424 54.876 -9.90955 54.6725 -9.21765 54.6297C-6.78711 54.4904 -4.46301 54.6351 -2.24536 55.0635C-1.43433 55.2202 -0.554565 55.2088 0.256104 55.0313C4.90424 54.0781 9.17981 54.4744 13.0828 56.2201C13.7393 56.5093 14.4046 56.5146 15.0787 56.2362C15.5932 56.0113 15.9037 55.7061 16.0101 55.3205C16.0822 55.0868 16.2944 54.8779 16.6049 54.735C16.9155 54.5922 17.3016 54.5259 17.6866 54.5494C19.0172 54.6136 19.7623 54.7904 21.1727 54.71C42.7813 53.3713 64.6471 52.552 86.7701 52.2521C87.1894 52.2474 87.5991 52.1836 87.9648 52.0663C88.3306 51.9489 88.6418 51.7812 88.8724 51.5773L89.4579 51.0793C89.9901 50.5974 89.7772 50.351 88.8192 50.3403L-19.9952 48.7659C-20.8646 48.7552 -21.6186 48.5678 -22.2573 48.2037C-24.0136 47.229 -25.7877 46.8114 -27.5796 46.9506C-34.0196 47.4861 -40.4506 48.0484 -46.8729 48.6374C-48.9131 48.8195 -50.9001 48.7659 -52.8339 48.4768C-53.7032 48.3375 -54.4128 48.0537 -54.9628 47.6253C-58.8126 44.5944 -63.9042 42.9825 -70.2378 42.7897C-71.2313 42.7576 -72.1006 42.5434 -72.8458 42.1471C-73.3958 41.8579 -73.9988 41.6759 -74.6553 41.6009C-77.0326 41.3118 -77.3874 41.7026 -75.7197 42.7737C-74.5488 43.5234 -73.7771 44.2945 -73.4045 45.087C-72.8369 46.2651 -73.5554 46.7471 -75.5601 46.5329C-78.2922 46.233 -80.0575 45.253 -80.8558 43.593C-81.1042 43.0682 -80.8558 42.6452 -80.1107 42.3239L-78.4341 41.5688C-77.7777 41.2903 -77.7156 40.969 -78.2479 40.6049C-79.2413 39.9409 -80.3856 39.4429 -81.6807 39.1109C-82.5677 38.8967 -83.2775 39.0198 -83.8097 39.4803C-84.3242 39.9087 -84.5636 40.4014 -84.5281 40.9583C-84.4749 41.6009 -83.9871 42.0775 -83.0645 42.3881C-82.8162 42.4738 -82.6831 42.6023 -82.6653 42.7737C-82.6476 42.9664 -82.7719 43.1271 -83.038 43.2556L-92.3253 47.4807C-93.1591 47.8663 -94.0906 47.9949 -95.1196 47.8663C-95.8469 47.77 -96.5566 47.8502 -97.2485 48.1073C-98.1887 48.4607 -99.1822 48.5249 -100.229 48.3C-101.151 48.1072 -101.994 47.7914 -102.757 47.3523C-103.013 47.204 -103.342 47.1098 -103.697 47.0838C-104.052 47.0577 -104.413 47.1011 -104.726 47.2076L-106.935 47.9787C-107.804 48.2893 -108.141 48.1448 -107.946 47.545C-107.858 47.2987 -107.698 47.0791 -107.467 46.8863C-107.13 46.6185 -106.687 46.4633 -106.137 46.4204L-99.404 45.9706C-98.4637 45.9063 -97.763 46.1206 -97.3018 46.6132L-96.9025 47.0149C-96.246 47.7003 -95.5631 47.7057 -94.8535 47.0309C-93.239 45.5208 -90.844 44.4819 -87.6683 43.9143C-87.6146 43.9036 -87.5671 43.8837 -87.5317 43.857C-87.4963 43.8304 -87.4745 43.7981 -87.4689 43.7641C-87.4633 43.7301 -87.4741 43.6958 -87.5 43.6654C-87.5259 43.6351 -87.5659 43.6099 -87.6151 43.593L-92.1923 42.34C-92.6003 42.2329 -92.9907 42.2542 -93.3632 42.4042C-97.142 43.9678 -100.504 43.7536 -103.449 41.7615C-104.389 41.1189 -104.176 40.9208 -102.81 41.1672L-100.681 41.5367C-99.4218 41.7509 -98.242 41.633 -97.1421 41.1832C-95.1373 40.3693 -93.0794 40.4068 -90.9682 41.2957C-89.9215 41.7241 -89.0433 41.6277 -88.3336 41.0065C-86.9853 39.7963 -85.2112 38.736 -83.0114 37.8257C-82.0888 37.4401 -81.0864 37.349 -80.0042 37.5525L-72.7659 38.902C-72.0918 39.0305 -71.595 38.9073 -71.2757 38.5325L-69.7322 36.7011C-69.5916 36.5301 -69.5415 36.3371 -69.5886 36.1483C-69.6357 35.9595 -69.7778 35.7839 -69.9955 35.6455C-70.2133 35.507 -70.4962 35.4123 -70.8061 35.3741C-71.116 35.3359 -71.4378 35.3561 -71.728 35.4319L-74.123 36.0906C-75.0101 36.3263 -75.8617 36.2834 -76.6778 35.9621C-79.7647 34.709 -82.9581 34.1735 -86.2579 34.3556C-87.2337 34.4091 -87.5974 34.1521 -87.349 33.5845C-86.9587 32.6848 -86.1337 32.1493 -84.8741 31.978C-83.9694 31.8495 -83.7919 31.5549 -84.3419 31.0944C-84.5726 30.8909 -84.8919 30.7838 -85.2999 30.7731C-86.0983 30.7517 -86.4176 30.5053 -86.2579 30.0341C-86.0096 29.2844 -86.0805 28.54 -86.4708 27.801C-86.7724 27.2334 -87.4111 26.9978 -88.3868 27.0941C-90.0013 27.2548 -91.6867 27.2441 -93.4431 27.0621C-95.1639 26.8907 -96.0155 25.5787 -95.9977 23.1261C-96.0011 23.0717 -95.9765 23.0185 -95.9271 22.9734C-95.8777 22.9282 -95.8059 22.8931 -95.7205 22.8725C-95.635 22.8518 -95.5399 22.8466 -95.4472 22.8575C-95.3545 22.8683 -95.2682 22.8947 -95.1994 22.9333C-94.543 23.3189 -94.1261 23.8169 -93.9487 24.4274C-93.9021 24.5624 -93.7951 24.6867 -93.6399 24.7861C-93.4847 24.8854 -93.2874 24.9559 -93.0704 24.9896L-91.9528 25.1503C-90.9238 25.311 -90.5512 25.086 -90.8351 24.4755C-91.66 22.7084 -93.789 20.861 -96.5832 20.0256C-98.6057 19.4472 -99.1024 18.5851 -98.0734 17.4391C-97.7541 17.0857 -97.8428 16.7697 -98.3395 16.4913C-98.5702 16.3627 -98.6323 16.1806 -98.5259 15.945C-98.4194 15.7415 -98.1887 15.6345 -97.8339 15.6238L-87.6418 15.2061C-86.7015 15.1739 -86.1781 14.8794 -86.0717 14.3225C-85.912 13.5085 -86.4176 12.8766 -87.5885 12.4268C-91.1367 11.0773 -94.4897 9.69038 -97.6476 8.26595C-98.5524 7.85897 -99.3508 7.91785 -100.043 8.44264C-100.522 8.81749 -101.152 9.03173 -101.932 9.08528C-103.174 9.16025 -103.476 8.8764 -102.837 8.2338C-101.116 6.50948 -98.579 5.59911 -95.226 5.50272C-94.1616 5.47059 -93.2479 5.67945 -92.485 6.12927L-87.8812 8.78005C-87.355 9.08298 -86.668 9.26261 -85.9451 9.2862C-85.2222 9.30979 -84.5116 9.1758 -83.9427 8.90859L-76.3318 5.42241C-75.498 5.03685 -74.5755 4.91372 -73.5643 5.05295L-59.54 7.02892C-59.4047 7.04753 -59.2644 7.04874 -59.1284 7.03235C-58.9923 7.01595 -58.8636 6.98235 -58.7505 6.93381C-58.6375 6.88527 -58.5426 6.82285 -58.4723 6.75064C-58.402 6.67844 -58.3577 6.59807 -58.3425 6.51482C-58.2892 6.20423 -58.4932 5.96333 -58.9545 5.79198C-60.6399 5.12795 -62.4938 4.56559 -64.5163 4.10506C-64.9243 4.00867 -65.0486 3.8373 -64.8889 3.59097L-64.5961 3.10903C-64.5469 3.03365 -64.4728 2.96517 -64.3781 2.90773C-64.2834 2.85029 -64.1703 2.80516 -64.0457 2.77507C-63.9211 2.74498 -63.7876 2.73052 -63.6534 2.73271C-63.5193 2.7349 -63.3873 2.75362 -63.2656 2.78772C-59.9835 3.74091 -56.5505 4.18002 -52.9669 4.10506C-51.8846 4.08363 -50.9001 4.26575 -50.0131 4.65131C-49.7292 4.77983 -49.4454 4.8976 -49.1615 5.0047C-48.9131 5.10109 -48.647 5.14933 -48.3632 5.14933C-42.1893 5.30998 -35.5541 4.93511 -28.4578 4.02476C-27.5352 3.90694 -26.7546 3.62845 -26.1159 3.18934C-25.7433 2.9323 -25.2732 2.75565 -24.7055 2.65926C-21.4766 2.08092 -19.3744 2.50932 -18.3986 3.94446C-18.0438 4.45854 -17.4228 4.80665 -16.5358 4.98872C-16.0035 5.10653 -15.4801 5.06903 -14.9656 4.87625C-13.9189 4.47998 -13.9189 4.08899 -14.9656 3.70343L-16.243 3.23758C-17.0946 2.92699 -17.068 2.63786 -16.1632 2.3701C-15.2762 2.10235 -14.4157 2.14513 -13.5819 2.49856C-12.8723 2.79844 -12.6061 3.20544 -12.7835 3.71952L-12.9698 4.31391C-13.0585 4.57095 -12.9077 4.64595 -12.5174 4.53885C-8.91595 3.52139 -4.72034 3.47315 0.0697632 4.39422C0.956787 4.56557 1.55121 4.9137 1.85278 5.43849C2.47369 6.50949 3.70667 7.13601 5.55176 7.31808C5.75726 7.33966 5.96826 7.33119 6.16754 7.29336C6.36682 7.25552 6.54895 7.18941 6.69916 7.1003C6.84937 7.01119 6.9635 6.90158 7.03229 6.78035C7.10107 6.65912 7.12268 6.52963 7.09528 6.40236L6.32355 2.86813C6.03967 1.59363 6.83801 1.25625 8.71857 1.85601C9.19757 2.01666 9.61444 2.22017 9.96924 2.4665C10.2767 2.68688 10.6608 2.86316 11.0934 2.98264C11.5261 3.10213 11.9966 3.1618 12.4708 3.15729C15.6996 3.13586 18.3164 3.76237 20.3212 5.03687C20.5074 5.15223 20.7341 5.24089 20.9847 5.29631C21.2352 5.35173 21.5031 5.37252 21.7687 5.3571C22.0344 5.34168 22.2909 5.2905 22.5193 5.20728C22.7478 5.12405 22.9423 5.01093 23.0887 4.87625L25.2177 2.94843C25.8563 2.34866 26.6193 2.28978 27.5063 2.77173C28.4465 3.2751 28.8456 3.96049 28.7037 4.82801C28.5618 5.65268 29.0319 5.81332 30.1141 5.30994C34.1414 3.4464 38.7541 2.92163 43.9522 3.7356C44.786 3.86411 45.5666 3.79449 46.294 3.52674L47.0657 3.25367C47.7754 2.99663 48.4407 3.02338 49.0616 3.33397L56.1136 6.83614C56.2741 6.91571 56.4603 6.97415 56.6603 7.00773C56.8604 7.04131 57.0699 7.04932 57.2753 7.03117C57.4808 7.01302 57.6777 6.9691 57.8535 6.90233C58.0292 6.83555 58.1798 6.74734 58.2958 6.64336L61.0634 4.18546C61.5601 3.74635 62.2432 3.47324 63.1125 3.36613C69.446 2.56288 75.7174 2.81452 81.9268 4.12115C82.8316 4.31393 83.5412 4.65667 84.0557 5.14933L87.1161 8.08926C87.3348 8.29545 87.6605 8.45203 88.0423 8.53471C88.424 8.61739 88.8404 8.62152 89.2264 8.5463C89.6124 8.47107 89.9463 8.3208 90.1759 8.11897C90.4055 7.91713 90.5179 7.67503 90.4957 7.43054C90.2296 5.14931 91.4537 3.6713 94.1681 2.99657C95.1261 2.76096 95.7471 2.94307 96.0309 3.54283L96.5631 4.76379C96.847 5.39568 97.5212 5.64732 98.5856 5.5188C102.382 5.05827 105.283 4.04624 107.288 2.48257C107.855 2.03275 108.556 1.92025 109.39 2.14516C109.993 2.30582 110.534 2.51997 111.013 2.78772C111.936 3.31251 111.803 3.69813 110.614 3.94446C109.443 4.2015 108.432 4.58701 107.58 5.1011C106.622 5.67944 106.8 6.0918 108.113 6.33813C110.117 6.70228 111.891 7.3074 113.435 8.15349C114.659 8.8068 115.555 8.67292 116.123 7.75186L117.24 5.96867C117.808 5.0369 117.276 4.51203 115.644 4.39422C114.916 4.35138 114.224 4.2175 113.568 3.99259C112.468 3.62845 112.548 3.42505 113.807 3.38221C116.398 3.28582 118.89 2.68069 121.285 1.56685C122.013 1.23484 122.802 1.17059 123.654 1.37408C125.144 1.73823 125.72 2.51462 125.383 3.70343C125.1 4.64591 125.57 4.81192 126.794 4.20145C129.721 2.7663 132.985 2.02731 136.587 1.98447C137.438 1.97375 138.113 2.18262 138.609 2.61102C140.33 4.09972 142.849 5.16535 146.167 5.80795C146.37 5.84691 146.587 5.8532 146.795 5.82609C147.004 5.79897 147.197 5.73945 147.355 5.65342C147.514 5.56739 147.633 5.45787 147.7 5.33564C147.767 5.21341 147.78 5.08272 147.737 4.95656C147.4 3.96053 146.477 3.72489 144.969 4.24969C143.799 4.65667 143.071 4.46391 142.787 3.67137C142.645 3.29652 142.849 2.98053 143.399 2.72349C143.701 2.58426 144.18 2.50927 144.836 2.49856C147.16 2.44501 149.201 2.22012 150.957 1.82385C151.809 1.63107 152.465 1.77032 152.926 2.24156L157.104 6.62729C157.583 7.11995 157.512 7.58583 156.891 8.02494C156.466 8.33553 156.368 8.67827 156.599 9.05312C156.794 9.39584 157.069 9.4226 157.424 9.13343C157.867 8.78 158 8.39449 157.823 7.97679C157.663 7.56981 157.92 7.39307 158.595 7.44662L159.499 7.51084C159.677 7.52155 159.783 7.58054 159.819 7.68764C160.386 9.15491 159.455 10.3652 157.025 11.3184C156.834 11.3942 156.696 11.5097 156.637 11.643C156.578 11.7763 156.602 11.918 156.705 12.0412L157.025 12.3947C157.166 12.5768 157.397 12.6303 157.716 12.5553C162.027 11.3665 163.473 9.53509 162.054 7.06107C161.735 6.50415 161.956 6.04902 162.719 5.69559L170.49 2.03271C170.731 1.91696 171.016 1.83531 171.324 1.79366C171.633 1.752 171.957 1.75132 172.273 1.79169C173.586 1.96306 174.295 2.3968 174.402 3.09296C174.473 3.6713 174.934 4.11043 175.786 4.41031C176.548 4.67806 177.4 4.68343 178.34 4.42638C179.298 4.15863 179.813 3.71413 179.884 3.09296C179.973 2.25758 180.638 1.57755 181.88 1.05276C182.43 0.817146 183.024 0.752884 183.663 0.859985C184.088 0.934952 184.461 1.0742 184.78 1.27769C185.277 1.6097 185.268 1.94172 184.754 2.27373C183.512 3.07698 183.086 4.10511 183.476 5.35818C183.707 6.07576 184.097 6.10789 184.647 5.45457C185.783 4.06227 187.681 3.35538 190.342 3.33397C191.495 3.33397 191.593 3.52673 190.635 3.91228C189.996 4.16933 190.005 4.59245 190.661 5.1815C190.868 5.3666 191.181 5.49869 191.54 5.55213C191.899 5.60558 192.279 5.57654 192.604 5.47065C193.42 5.21361 194.041 4.83874 194.467 4.34608C197.359 0.950996 201.208 -0.0664978 206.016 1.29368C206.797 1.50788 207.595 1.52399 208.411 1.34192C211.8 0.538666 215.206 0.340538 218.63 0.74752C219.677 0.876038 220.661 0.785034 221.584 0.474442C223.606 -0.178871 225.469 -0.157486 227.172 0.538666C228.379 1.03133 228.609 1.6632 227.864 2.43433C225.735 4.55492 226.019 6.20428 228.716 7.38239C229.319 7.63943 229.425 7.95532 229.035 8.33018C228.29 9.1013 228.113 9.89391 228.503 10.7079C228.751 11.2327 229.328 11.4575 230.233 11.3826C232.699 11.2005 234.845 11.5379 236.673 12.3947C237.489 12.7695 237.622 13.2193 237.072 13.7441C236.451 14.3331 236.38 14.965 236.859 15.6398C236.934 15.7467 236.968 15.8626 236.958 15.9785C236.949 16.0945 236.896 16.2076 236.804 16.3096C236.712 16.4115 236.583 16.4996 236.427 16.5672C236.27 16.6349 236.09 16.6803 235.901 16.7001C234.907 16.7965 234.003 16.6947 233.187 16.3949C232.424 16.1271 231.945 15.7362 231.75 15.2222C230.916 13.123 228.76 11.977 225.283 11.7842C224.414 11.7307 223.864 11.4468 223.633 10.9327C223.296 10.183 222.56 9.70649 221.424 9.503C220.803 9.38519 220.59 9.1442 220.786 8.78005C221.407 7.56982 221.566 6.26318 221.265 4.86017C221.087 4.08904 220.768 4.06756 220.307 4.79585C219.473 6.1346 217.876 7.06108 215.517 7.57516C215.321 7.62096 215.148 7.69709 215.016 7.79589C214.884 7.89469 214.798 8.01264 214.766 8.13799C214.733 8.26334 214.756 8.39168 214.832 8.51001C214.908 8.62834 215.034 8.7325 215.197 8.81212C215.534 8.96206 215.907 9.03706 216.315 9.03706C217.149 9.04777 217.566 9.30486 217.566 9.80824C217.548 10.5686 217.264 11.2433 216.714 11.8323C216.217 12.3571 215.499 12.5071 214.559 12.2822L212.696 11.8484C211.738 11.6128 210.922 11.736 210.247 12.218C209.662 12.6464 209.21 13.1604 208.89 13.7602C208.748 14.0601 208.429 14.1725 207.932 14.0976L207.107 13.9529C206.664 13.8887 206.531 13.7281 206.708 13.471L208.092 11.6235C208.5 11.0666 208.198 10.7988 207.187 10.8202L202.078 10.9167C201.155 10.9381 200.845 11.2112 201.146 11.736C201.998 13.2996 201.909 14.8419 200.88 16.3627C200.734 16.5769 200.687 16.8108 200.743 17.0399C200.799 17.2689 200.957 17.4846 201.2 17.664C201.59 17.9317 202.007 18.1727 202.45 18.3869C203.178 18.7296 203.098 18.8421 202.211 18.7243C202.122 18.7136 202.033 18.7082 201.945 18.7082C201.75 18.6868 201.608 18.6226 201.519 18.5155C201.271 18.1299 200.88 17.7925 200.348 17.5034C199.603 17.0964 198.858 17.091 198.113 17.4873L196.782 18.1781C196.126 18.5315 195.522 18.4994 194.973 18.0817C194.742 17.8996 194.635 17.6907 194.653 17.4551C194.689 16.9946 194.352 16.8554 193.642 17.0375C192.152 17.4231 190.617 17.4926 189.038 17.2463C187.867 17.0642 187.548 17.2998 188.08 17.9531C189.286 19.4097 189.943 20.9198 190.049 22.4835C190.12 23.2653 190.546 23.3457 191.327 22.7245C191.717 22.4246 191.886 22.114 191.832 21.7927C191.655 20.6467 192.409 19.8971 194.094 19.5436C195.177 19.3187 195.86 19.5382 196.143 20.2023C196.232 20.4165 196.392 20.6039 196.622 20.7645C197.03 21.0751 197.563 21.2786 198.219 21.375C201.696 21.8784 204.907 22.7352 207.852 23.9455C208.702 24.2807 209.694 24.4542 210.7 24.4435C211.463 24.4221 212.181 24.5077 212.855 24.7005C213.867 24.9789 214.23 24.7915 213.946 24.1382L213.042 22.0658C212.811 21.5196 212.518 21.5089 212.164 22.0337C211.951 22.3657 211.826 22.7085 211.791 23.0619C211.78 23.1876 211.706 23.3076 211.578 23.4066C211.45 23.5055 211.275 23.5787 211.074 23.6168C210.873 23.6548 210.657 23.6559 210.453 23.62C210.248 23.5841 210.066 23.5128 209.928 23.4153C208.81 22.5906 208.367 21.5303 208.598 20.2344C208.722 19.5061 209.307 19.324 210.354 19.6882C211.826 20.2023 213.423 20.2986 215.144 19.9773C216.386 19.7631 217.033 20.0416 217.087 20.8128C217.14 21.3911 217.379 21.9212 217.805 22.4032C218.32 23.0137 218.861 23.019 219.428 22.4193C220.298 21.4768 221.628 20.6949 223.42 20.0737C224.023 19.8595 224.564 19.9078 225.043 20.2184C225.505 20.5396 225.86 20.877 226.108 21.2305C226.463 21.7338 227.066 22.0712 227.918 22.2426C233.63 23.4314 239.458 23.7955 245.401 23.335C248.808 23.0672 252.24 23.2867 255.7 23.9936C265.413 25.9696 275.419 24.1703 285.691 24.2989C289.665 24.3524 293.462 23.9186 297.081 22.9976C297.932 22.7834 298.811 22.7191 299.715 22.8048C308.781 23.6081 317.882 23.9187 327.019 23.7366C330.425 23.6723 333.166 22.9173 336.519 23.0619C342.037 23.2868 347.864 22.8852 354.003 21.857C356.398 21.45 358.616 21.6857 360.656 22.5639C361.365 22.8745 362.164 23.0511 363.051 23.094C369.1 23.4367 375.07 23.1583 380.96 22.2586C381.954 22.1087 382.938 22.1301 383.914 22.3229C388.03 23.1154 392.465 22.5907 397.22 20.7485C398.315 20.3265 399.571 20.0811 400.867 20.0361C402.162 19.9911 403.454 20.1479 404.618 20.4914C412.442 22.8369 419.6 22.0015 428.009 21.8088C451.676 21.2733 470.402 20.6253 484.186 19.8649C499.497 19.0295 514.976 18.3334 530.623 17.7764C536.052 17.5837 541.667 19.0777 545.26 21.4875C545.513 21.6605 545.687 21.871 545.763 22.0973C545.839 22.3237 545.815 22.5576 545.693 22.7752C545.571 22.9928 545.356 23.1862 545.069 23.3354C544.782 23.4846 544.435 23.5842 544.062 23.6241L529.426 25.2788C527.403 25.5037 527.262 25.9482 529 26.6122C531.218 27.4476 533.293 28.2508 535.227 29.022C538.296 30.2429 538.642 31.5978 536.265 33.0865C536.018 33.2464 535.812 33.4248 535.653 33.6166C534.819 34.6233 535.041 35.3355 536.318 35.7532C539.015 36.6315 538.9 37.3276 535.972 37.8417C534.571 38.0987 533.134 38.2166 531.661 38.1952C531.363 38.1921 531.068 38.2397 530.812 38.3326C530.556 38.4255 530.348 38.56 530.212 38.7207C530.077 38.8814 530.018 39.0618 530.044 39.2416C530.069 39.4213 530.178 39.593 530.357 39.7373C532.185 41.1832 532.992 42.7094 532.779 44.3159C532.746 44.5291 532.785 44.7444 532.895 44.9488C533.005 45.1532 533.183 45.3423 533.418 45.5047C536.771 47.786 540.736 49.2265 545.313 49.8262C545.692 49.8772 546.041 49.989 546.324 50.1499C546.606 50.3107 546.811 50.5146 546.918 50.7401C547.024 50.9655 547.027 51.2042 546.928 51.4307C546.828 51.6573 546.629 51.8633 546.351 52.0271C544.045 53.3873 541.241 53.9067 537.942 53.5854C537.161 53.5105 536.638 53.7033 536.372 54.1638C535.786 55.1599 534.713 55.931 533.152 56.4772C532.318 56.7664 531.555 56.7128 530.863 56.3165C529.94 55.7917 529.24 55.1598 528.761 54.4208C528.53 54.0781 528.14 53.8907 527.59 53.8586C527.466 53.8586 527.35 53.8853 527.244 53.9389C527.031 54.0781 526.916 54.2495 526.898 54.453C526.862 56.4129 525.354 57.5589 522.374 57.8909C510.612 59.2082 499.825 60.4774 490.014 61.6983C488.187 61.9232 488.134 62.2659 489.855 62.7265C492.445 63.4119 495.275 63.7278 498.344 63.6743C498.719 63.6651 499.086 63.7434 499.368 63.8929C499.65 64.0424 499.827 64.2517 499.861 64.4776C499.896 64.6382 499.861 64.7935 499.754 64.9435C499.612 65.1684 499.346 65.2915 498.956 65.313C491.611 65.8806 484.523 66.9784 477.693 68.6063C470.632 70.2985 464.946 71.3748 460.635 71.8354C447.95 73.2063 434.964 74.5825 421.676 75.9641C421.552 75.9748 421.49 76.0123 421.49 76.0765C421.49 76.0979 421.49 76.1194 421.49 76.1408C421.49 76.1836 421.525 76.2051 421.596 76.2051C433.695 75.9052 445.405 75.4339 456.723 74.7913C459.012 74.6628 460.857 75.3108 462.258 76.7352C464.92 79.4663 465.842 82.0045 465.026 84.35C464.831 84.8641 465.044 85.3032 465.665 85.6674C466.711 86.2993 467.519 87.0329 468.086 87.8683C468.494 88.4787 468.166 88.8429 467.102 88.9607L444.748 91.499C443.932 91.5954 443.914 91.7292 444.695 91.9006C451.348 93.3143 458.027 93.0091 463.642 95.9008C468.308 98.2998 472.637 101.052 476.629 104.158C476.734 104.239 476.799 104.336 476.817 104.439C476.835 104.541 476.804 104.644 476.729 104.736C476.654 104.829 476.538 104.906 476.393 104.96C476.248 105.014 476.081 105.043 475.91 105.042C473.036 104.999 470.34 105.213 467.82 105.684C464.929 106.231 462.214 106.648 459.677 106.937C431.238 110.268 404.982 112.416 380.907 113.38C363.095 114.097 344.467 115.072 325.023 116.303C322.255 116.475 319.372 116.619 316.374 116.737C274.239 118.365 232.096 119.709 189.943 120.77C146.779 121.851 102.205 121.899 56.2201 120.914C50.818 120.802 46.9326 121.83 41.5571 120.175C40.6701 119.907 39.8717 119.982 39.1621 120.4C38.9847 120.507 38.8339 120.625 38.7097 120.753C38.495 120.973 38.1707 121.145 37.7834 121.246C37.3961 121.347 36.9658 121.372 36.5542 121.316C33.6624 120.909 30.744 121.069 27.799 121.798C26.8232 122.044 25.8386 122.065 24.8451 121.862L20.1615 120.946C19.2035 120.764 18.2899 120.818 17.4205 121.107C16.4271 121.439 15.398 121.664 14.3336 121.782C12.9675 121.942 12.5328 121.632 13.0296 120.85L13.8279 119.581C14.1827 119.013 13.9432 118.558 13.1094 118.215C11.9208 117.744 10.6878 117.685 9.41046 118.038C8.73633 118.231 8.38147 118.553 8.34601 119.002C8.32825 119.152 8.23071 119.286 8.05328 119.404C7.76941 119.607 7.40576 119.731 6.96222 119.773C3.28986 120.213 -0.169678 120.17 -3.41626 119.645C-5.66937 119.281 -5.81128 118.724 -3.84204 117.974C-2.33405 117.407 -1.12769 116.748 -0.2229 115.998C-0.0606079 115.863 0.0551147 115.709 0.117615 115.546C0.180115 115.384 0.187988 115.215 0.140869 115.05C0.09375 114.886 -0.00744629 114.728 -0.156738 114.588C-0.30603 114.447 -0.500488 114.326 -0.728577 114.231C-1.82849 113.781 -3.03491 113.546 -4.34772 113.524C-5.78473 113.492 -6.81372 113.872 -7.43463 114.665L-9.32404 117.091C-9.80304 117.712 -10.5926 117.915 -11.6925 117.701C-12.0118 117.648 -12.2957 117.664 -12.5441 117.749C-14.1053 118.263 -13.9988 118.574 -12.2247 118.681C-11.5505 118.713 -10.8942 118.665 -10.2555 118.536C-8.46362 118.162 -8.17975 118.413 -9.40387 119.292C-9.66998 119.474 -10.0248 119.629 -10.4684 119.757C-11.0006 119.918 -11.5505 119.956 -12.1182 119.87C-16.0035 119.302 -19.9687 118.922 -24.0136 118.729C-24.1558 118.722 -24.2914 118.689 -24.4042 118.637C-24.517 118.584 -24.6022 118.513 -24.6499 118.431C-24.6976 118.35 -24.7056 118.262 -24.673 118.178C-24.6404 118.095 -24.5685 118.018 -24.466 117.958C-21.3259 116.03 -18.2123 115.57 -15.1254 116.577C-14.2028 116.876 -13.8568 116.716 -14.0875 116.095L-14.7262 114.376C-14.9213 113.808 -15.5068 113.492 -16.4826 113.428C-22.896 113.01 -24.0402 115.58 -28.0053 117.701C-28.5999 118.013 -29.2946 118.249 -30.0457 118.392C-30.7969 118.535 -31.5883 118.583 -32.3704 118.534C-33.1524 118.484 -33.9082 118.337 -34.5904 118.103C-35.2726 117.868 -35.8664 117.551 -36.3347 117.171L-40.1934 114.07C-42.2159 112.442 -43.6175 112.619 -44.3981 114.601C-44.8239 115.693 -44.4424 116.662 -43.2538 117.508C-42.8102 117.83 -42.9344 118.033 -43.6263 118.119L-47.5381 118.617C-48.2478 118.713 -48.647 118.542 -48.7357 118.103L-49.534 114.504C-49.6404 114.044 -50.084 113.824 -50.8646 113.845L-51.5832 113.878C-52.7363 113.91 -53.1887 114.269 -52.9403 114.954C-52.4435 116.325 -53.162 117.23 -55.0958 117.669C-61.4648 119.093 -62.2632 118.344 -57.4908 115.42C-56.2845 114.681 -56.187 113.91 -57.1982 113.106C-57.6949 112.7 -57.5441 112.437 -56.7458 112.319C-55.0249 112.052 -53.2863 111.961 -51.5299 112.046C-50.3235 112.11 -49.4986 111.805 -49.0551 111.13C-48.5406 110.349 -47.7688 109.652 -46.7398 109.042C-45.6044 108.357 -45.8084 107.896 -47.3519 107.66C-50.4388 107.2 -52.5677 106.113 -53.7386 104.399C-53.899 104.167 -54.1815 103.974 -54.5423 103.849C-54.9031 103.724 -55.3223 103.675 -55.7345 103.708C-56.6038 103.783 -57.2692 103.596 -57.7304 103.146C-57.8882 102.989 -57.9557 102.806 -57.9219 102.625C-57.8882 102.445 -57.7551 102.277 -57.5441 102.15C-55.4507 100.886 -55.4152 99.6225 -57.4377 98.3587C-58.1296 97.9303 -58.9545 97.8018 -59.9125 97.9732L-61.3762 98.2302C-62.4584 98.423 -62.9728 98.1874 -62.9196 97.5234L-62.8398 96.5595C-62.83 96.4004 -62.7627 96.2446 -62.6426 96.1028C-62.5226 95.9611 -62.3528 95.8369 -62.1449 95.739C-61.937 95.6411 -61.6962 95.5717 -61.4393 95.5358C-61.1824 95.5 -60.9156 95.4984 -60.6576 95.5313C-58.0497 95.8633 -56.3998 95.3492 -55.7079 93.989C-55.575 93.7353 -55.6047 93.4602 -55.7914 93.2169C-55.9782 92.9736 -56.3087 92.7794 -56.7191 92.6717C-57.6771 92.4254 -58.5642 92.1094 -59.3803 91.7239C-60.5157 91.1991 -60.3737 90.9581 -58.9545 91.001C-56.2756 91.0759 -54.4572 90.3316 -53.4992 88.7679C-53.1976 88.2752 -53.304 87.8201 -53.8185 87.4024C-54.9362 86.4706 -55.7346 85.4425 -56.2136 84.3179C-56.4442 83.7717 -57.0297 83.5146 -57.9699 83.5468L-71.3821 83.9966C-72.4998 84.0287 -72.6328 83.8253 -71.7812 83.3862C-66.9202 80.88 -61.252 80.2106 -54.7765 81.378C-53.7475 81.5708 -53.2685 81.3405 -53.3395 80.6872L-53.6855 77.0565C-53.7387 76.3604 -53.1887 76.0497 -52.0355 76.1247L-39.9805 76.9601C-39.2961 77.0016 -38.6096 76.8806 -38.0645 76.6227C-34.9952 75.1233 -32.0414 74.9841 -29.2029 76.2051C-28.2626 76.612 -27.6683 76.4782 -27.4199 75.8034C-27.2603 75.3643 -27.3932 74.9413 -27.819 74.5343C-28.5464 73.806 -29.5577 73.3669 -30.8528 73.2169C-32.5204 73.0027 -33.4341 72.3923 -33.5938 71.3856C-33.7534 70.4216 -34.5872 70.1003 -36.0952 70.4216C-37.5322 70.7322 -39.0313 70.6519 -40.5925 70.1807C-40.6203 70.1727 -40.6509 70.169 -40.6816 70.1699C-40.7123 70.1708 -40.7421 70.1762 -40.7685 70.1858C-40.7949 70.1953 -40.8168 70.2086 -40.8325 70.2246C-40.8483 70.2405 -40.8573 70.2585 -40.8587 70.2771L-40.9119 70.7108C-40.9474 71.0428 -40.6902 71.1928 -40.1402 71.1606C-38.3661 71.0428 -37.1065 71.4551 -36.3614 72.3976C-36.1951 72.6044 -36.1262 72.8349 -36.1624 73.0638C-36.1985 73.2927 -36.3382 73.5111 -36.5663 73.6953C-36.7944 73.8794 -37.1019 74.0221 -37.4553 74.1077C-37.8088 74.1934 -38.1945 74.2187 -38.5701 74.1809C-43.6618 73.6561 -47.2543 72.0817 -49.3477 69.4577C-49.8267 68.858 -49.6405 68.3385 -48.7889 67.8994C-47.9374 67.4603 -47.2899 66.9409 -46.8463 66.3411C-46.2609 65.57 -45.4979 65.495 -44.5577 66.1162C-43.848 66.5767 -42.9876 66.9248 -41.9764 67.1604C-41.2845 67.3318 -40.3442 67.3264 -39.1556 67.1444C-35.4477 66.5874 -33.1857 67.1658 -32.3696 68.8794C-32.0148 69.6291 -31.314 69.7737 -30.2673 69.3131C-29.8593 69.1311 -29.5133 68.9115 -29.2294 68.6545C-28.8311 68.3039 -28.6178 67.89 -28.6178 67.468C-28.6178 67.046 -28.8311 66.636 -29.2294 66.2929C-33.3808 62.6943 -38.7741 60.9915 -45.4092 61.1842C-46.4737 61.2164 -46.5802 61.045 -45.7286 60.6701C-45.3915 60.5202 -45.0367 60.3542 -44.6641 60.1721C-43.5642 59.6473 -43.6884 59.2618 -45.0367 59.0154C-46.6334 58.7263 -48.1148 58.2818 -49.4808 57.6821C-50.5985 57.1894 -50.4921 56.8413 -49.1615 56.6378C-47.8309 56.4343 -46.8729 56.6967 -46.2874 57.425C-46.1296 57.6199 -45.8808 57.782 -45.5728 57.8907C-45.2647 57.9995 -44.9113 58.0498 -44.5577 58.0355C-42.0917 57.9069 -40.6014 57.1894 -40.0869 55.8827C-39.7676 55.1009 -40.0426 55.0152 -40.9119 55.6257C-41.8699 56.3218 -43.1561 56.67 -44.7706 56.67C-46.2076 56.6807 -46.3672 56.4129 -45.2496 55.8667L-41.7369 54.1477C-40.974 53.7836 -40.282 53.8318 -39.6611 54.2923L-34.5251 58.1479C-34.3782 58.2538 -34.2823 58.382 -34.2477 58.5186C-34.2132 58.6552 -34.2413 58.7949 -34.3292 58.9224C-34.417 59.05 -34.5611 59.1606 -34.7458 59.2421C-34.9305 59.3237 -35.1487 59.3731 -35.3767 59.385C-37.204 59.5028 -38.5524 59.0797 -39.4217 58.1158C-39.9185 57.5589 -40.4773 57.5321 -41.0982 58.0355C-41.5594 58.3889 -41.8433 58.7905 -41.9498 59.2403C-42.074 59.7973 -41.7369 60.2311 -40.9385 60.5416C-39.0934 61.2699 -37.0621 61.7197 -34.8444 61.8911C-33.9396 61.9554 -33.23 61.7626 -32.7155 61.3127C-31.1011 59.8669 -30.8794 58.2979 -32.0503 56.6057C-32.1504 56.4498 -32.1723 56.2795 -32.1132 56.1162C-32.0541 55.9529 -31.9167 55.8036 -31.7181 55.6871C-31.5194 55.5706 -31.2682 55.492 -30.9961 55.4611C-30.7239 55.4302 -30.4426 55.4483 -30.1874 55.5133L-24.5193 57.0073C-23.5967 57.2536 -22.7274 57.2055 -21.9113 56.8627L-19.5162 55.8827C-18.6824 55.5293 -17.8309 55.5133 -16.9615 55.8346C-15.4181 56.4129 -13.6617 56.6593 -11.6925 56.5736C-11.5522 56.5652 -11.4166 56.5383 -11.2955 56.4946C-11.1744 56.451 -11.0708 56.3918 -10.992 56.3212C-10.9132 56.2506 -10.8613 56.1704 -10.8397 56.0863C-10.8182 56.0022 -10.8277 55.9162 -10.8676 55.8346ZM6.2171 114.954C5.45422 115.736 5.31226 116.341 5.79126 116.769C6.19928 117.123 6.58966 117.117 6.96222 116.753C7.56543 116.164 7.69849 115.586 7.36139 115.018C7.05981 114.493 6.67834 114.472 6.2171 114.954ZM11.8198 113.864C11.7219 113.959 11.6735 114.071 11.6772 114.194C11.681 114.317 11.7369 114.449 11.8419 114.581C11.9468 114.714 12.0986 114.845 12.2886 114.967C12.4787 115.088 12.7032 115.199 12.9495 115.291C13.1958 115.384 13.4589 115.457 13.7238 115.506C13.9888 115.555 14.2504 115.579 14.4938 115.578C14.7371 115.576 14.9574 115.548 15.142 115.496C15.3267 115.444 15.4721 115.368 15.5699 115.273C15.6678 115.178 15.7164 115.066 15.7126 114.943C15.7088 114.82 15.6528 114.688 15.5479 114.555C15.443 114.423 15.2913 114.292 15.1012 114.17C14.9111 114.048 14.6866 113.938 14.4403 113.845C14.194 113.753 13.9308 113.68 13.6659 113.631C13.4009 113.582 13.1394 113.557 12.8961 113.559C12.6527 113.561 12.4324 113.588 12.2478 113.641C12.0632 113.693 11.9177 113.769 11.8198 113.864ZM-32.5027 114.408C-30.3383 113.273 -29.9302 112.276 -31.2786 111.42C-31.539 111.252 -31.8687 111.128 -32.2338 111.062C-32.599 110.996 -32.9866 110.99 -33.3572 111.044C-33.7278 111.098 -34.0681 111.21 -34.3434 111.369C-34.6187 111.528 -34.8191 111.729 -34.9243 111.95C-35.3146 112.742 -35.1017 113.513 -34.2856 114.263C-33.7889 114.724 -33.1946 114.772 -32.5027 114.408ZM-24.1999 66.4054C-25.2998 67.1872 -25.2111 67.8941 -23.9338 68.526C-23.2951 68.8366 -22.6564 68.9061 -22.0178 68.7348C-21.0598 68.4777 -20.8203 68.0761 -21.2993 67.5299C-21.8137 66.9408 -22.4524 66.5285 -23.2153 66.2929C-23.3715 66.239 -23.5554 66.2208 -23.7352 66.2413C-23.9149 66.2619 -24.0793 66.3199 -24.1999 66.4054ZM-25.0515 63.7547C-24.7676 63.8189 -24.5724 63.7654 -24.466 63.594C-23.8273 62.523 -24.3773 61.7519 -26.1159 61.2806C-27.6239 60.8629 -28.9988 60.9486 -30.2407 61.5377C-31.2697 62.0089 -31.1809 62.3837 -29.9745 62.6622L-25.0515 63.7547ZM-3.46948 56.5575C-4.81781 56.5254 -5.95325 56.7235 -6.87579 57.1519C-8.09991 57.7195 -7.94916 58.089 -6.4234 58.2604C-4.15253 58.5067 -2.47601 58.0355 -1.3938 56.8467C-1.29041 56.7228 -1.27155 56.5795 -1.34119 56.4473C-1.41083 56.3152 -1.56354 56.2048 -1.76642 56.1398C-2.51154 55.8935 -2.92847 55.9577 -3.01715 56.3326C-3.05261 56.4932 -3.20337 56.5682 -3.46948 56.5575ZM109.31 49.4567C107.66 49.0497 106.108 49.0926 104.653 49.5853C104.515 49.63 104.402 49.6982 104.327 49.7815C104.253 49.8648 104.221 49.9594 104.235 50.0536C104.249 50.1478 104.309 50.2374 104.407 50.3113C104.505 50.3851 104.637 50.4399 104.786 50.4688C106.826 50.8865 108.388 50.6991 109.47 49.9065C109.754 49.703 109.7 49.5531 109.31 49.4567ZM253.72 36.7918C253.737 36.901 253.847 37.004 254.045 37.0947C254.243 37.1854 254.524 37.2621 254.873 37.3205C255.222 37.3789 255.632 37.4178 256.079 37.4349C256.525 37.4521 257.001 37.4471 257.478 37.4204C258.44 37.3665 259.35 37.2272 260.007 37.0331C260.664 36.839 261.014 36.606 260.98 36.3854C260.963 36.2761 260.853 36.1732 260.655 36.0825C260.457 35.9918 260.175 35.915 259.827 35.8567C259.478 35.7983 259.068 35.7595 258.621 35.7423C258.174 35.7252 257.699 35.7301 257.222 35.7568C256.259 35.8107 255.35 35.9501 254.693 36.1442C254.036 36.3383 253.686 36.5712 253.72 36.7918ZM304.724 36.4475C304.739 36.6518 308.299 36.7544 314.622 36.7325C320.944 36.7106 329.511 36.566 338.438 36.3308C347.363 36.0955 355.918 35.7887 362.22 35.4779C368.521 35.1671 372.054 34.8777 372.04 34.6734C372.025 34.4691 368.465 34.3666 362.142 34.3885C355.819 34.4104 347.253 34.5549 338.326 34.7901C329.4 35.0254 320.846 35.3322 314.544 35.643C308.243 35.9538 304.71 36.2432 304.724 36.4475ZM-46.527 34.0825C-46.598 34.5752 -46.2786 34.7037 -45.5689 34.468C-43.919 33.9325 -43.1917 33.1293 -43.3868 32.0583C-43.4037 31.9513 -43.4711 31.8496 -43.5809 31.765C-43.6907 31.6804 -43.8383 31.6166 -44.0062 31.5811C-44.1742 31.5456 -44.3555 31.5399 -44.5287 31.5647C-44.7018 31.5895 -44.8597 31.6436 -44.9835 31.7209C-45.8882 32.2671 -46.4028 33.0543 -46.527 34.0825ZM-76.7843 30.4035C-75.4892 30.9819 -74.398 31.7745 -73.511 32.7812C-73.0497 33.2953 -72.411 33.3917 -71.5949 33.0704C-71.2401 32.9205 -71.0095 32.717 -70.903 32.4599C-70.6369 31.828 -71.0095 31.4103 -72.0208 31.2068C-74.8948 30.6392 -76.0923 29.4772 -75.6133 27.7207C-75.5939 27.6468 -75.6014 27.5713 -75.6355 27.4993C-75.6696 27.4273 -75.7292 27.3607 -75.8103 27.3041C-75.8914 27.2475 -75.992 27.2022 -76.105 27.1715C-76.2181 27.1408 -76.3409 27.1254 -76.4648 27.1263L-77.5294 27.1424C-77.9988 27.1518 -78.4473 27.2622 -78.7938 27.4537C-79.1403 27.6452 -79.3619 27.9052 -79.4188 28.1867C-79.5784 28.9149 -79.5252 29.6003 -79.2591 30.2429C-79.2059 30.3929 -79.0551 30.4411 -78.8067 30.3876L-78.168 30.259C-77.6712 30.1626 -77.2101 30.2108 -76.7843 30.4035ZM179.067 22.3561C178.423 22.5085 177.925 22.839 177.683 23.2749C177.441 23.7108 177.474 24.2164 177.775 24.6806C178.076 25.1447 178.621 25.5292 179.29 25.7496C179.958 25.9701 180.695 26.0084 181.339 25.856C181.983 25.7037 182.481 25.3732 182.723 24.9373C182.966 24.5013 182.932 23.9957 182.631 23.5316C182.33 23.0675 181.785 22.6829 181.117 22.4625C180.448 22.2421 179.711 22.2038 179.067 22.3561ZM93.1292 22.0755C93.2011 22.1352 93.3363 22.1663 93.5272 22.1669C93.718 22.1675 93.9608 22.1376 94.2415 22.079C94.5222 22.0204 94.8355 21.9342 95.1634 21.8253C95.4913 21.7165 95.8274 21.587 96.1525 21.4444C96.4777 21.3018 96.7856 21.1488 97.0585 20.9941C97.3314 20.8395 97.564 20.6863 97.7431 20.5432C97.9222 20.4001 98.0443 20.27 98.1022 20.1602C98.1602 20.0504 98.153 19.9632 98.0811 19.9035C98.0092 19.8438 97.8739 19.8126 97.6831 19.812C97.4922 19.8114 97.2495 19.8413 96.9688 19.8999C96.6881 19.9585 96.3748 20.0446 96.0469 20.1535C95.719 20.2624 95.3829 20.3919 95.0577 20.5345C94.7325 20.6771 94.4247 20.8301 94.1518 20.9847C93.8789 21.1394 93.6462 21.2926 93.4672 21.4357C93.2881 21.5788 93.166 21.7089 93.108 21.8187C93.05 21.9285 93.0573 22.0157 93.1292 22.0755ZM179.751 15.7683C179.431 15.8326 179.103 15.8166 178.766 15.7202C178.181 15.5488 177.923 15.2703 177.994 14.8848C178.136 14.0708 177.826 13.3158 177.063 12.6196C176.389 11.9984 175.857 12.0412 175.466 12.7481C174.508 14.4724 172.415 15.5755 169.186 16.0575C168.086 16.2288 167.58 16.6573 167.669 17.3427C167.722 17.6748 167.962 17.9693 168.388 18.2263C168.536 18.3124 168.721 18.3726 168.921 18.4007C169.122 18.4287 169.332 18.4235 169.528 18.3856C169.724 18.3478 169.9 18.2787 170.036 18.1856C170.173 18.0925 170.265 17.9789 170.304 17.8568C170.694 16.6679 171.865 16.111 173.816 16.186C175.147 16.2503 175.928 16.6626 176.158 17.4231C176.336 18.0228 176.052 18.5316 175.307 18.9493L173.364 20.0417C172.317 20.6307 172.504 20.8716 173.923 20.7645C175.786 20.6146 176.779 19.9613 176.903 18.8046C176.957 18.1727 177.498 17.9104 178.527 18.0175C181.507 18.3388 183.858 17.664 185.579 15.9932C186.164 15.4042 186.013 14.8954 185.126 14.467C183.973 13.9208 182.572 13.6798 180.922 13.7441C179.91 13.7869 179.449 14.1137 179.538 14.7241C179.573 14.9812 179.706 15.2275 179.937 15.4631C180.079 15.6023 180.017 15.704 179.751 15.7683ZM144.544 20.1059C144.522 20.13 144.513 20.157 144.518 20.184C144.523 20.2111 144.542 20.237 144.572 20.2588C144.603 20.2805 144.644 20.2973 144.69 20.3072C144.737 20.3171 144.788 20.3197 144.836 20.3147C147.285 20.0095 149.626 18.5958 148.935 16.9411C148.615 16.1486 148.136 16.1111 147.498 16.8287L144.544 20.1059ZM-88.9191 18.3869C-88.7772 18.0763 -88.9545 17.8675 -89.4513 17.7604C-90.5867 17.5033 -91.7045 17.4819 -92.8044 17.6961C-93.0383 17.7419 -93.2518 17.8191 -93.4294 17.9221C-93.607 18.025 -93.7441 18.1511 -93.8309 18.2912C-93.9176 18.4313 -93.9517 18.5819 -93.9307 18.7319C-93.9096 18.8818 -93.8339 19.0274 -93.7092 19.158C-93.3366 19.5436 -92.9108 19.8382 -92.4318 20.0417C-91.5802 20.3951 -90.8085 20.3308 -90.1166 19.8489C-89.6198 19.5062 -89.2206 19.0188 -88.9191 18.3869ZM127.739 16.5879C127.819 16.7321 128.032 16.8478 128.367 16.9285C128.701 17.0092 129.151 17.0533 129.69 17.0582C130.23 17.0631 130.848 17.0288 131.509 16.9572C132.171 16.8856 132.863 16.7782 133.546 16.641C134.926 16.3639 136.185 15.9826 137.047 15.5809C137.909 15.1792 138.303 14.79 138.143 14.4989C138.063 14.3548 137.85 14.239 137.516 14.1583C137.181 14.0776 136.731 14.0336 136.192 14.0286C135.653 14.0237 135.034 14.0581 134.373 14.1296C133.711 14.2012 133.019 14.3087 132.336 14.4459C130.957 14.7229 129.697 15.1042 128.835 15.5059C127.973 15.9076 127.579 16.2968 127.739 16.5879ZM109.363 12.5072C110.268 12.4322 110.827 12.1376 111.04 11.6235C111.11 11.4506 111.121 11.271 111.073 11.0952C111.024 10.9193 110.918 10.7508 110.759 10.5996C110.6 10.4484 110.393 10.3175 110.149 10.2147C109.904 10.1119 109.628 10.0393 109.337 10.001C108.077 9.84035 106.844 9.60474 105.638 9.29414C100.475 7.94468 99.4106 8.69969 102.444 11.5593C103.047 12.1376 103.704 12.6892 104.414 13.214C104.946 13.6103 105.292 14.0601 105.451 14.5634C105.948 16.1699 107.483 17.1178 110.055 17.407C110.516 17.4605 110.942 17.4069 111.333 17.2463C111.652 17.1177 111.847 16.9411 111.918 16.7162C112.131 16.0736 111.785 15.5702 110.88 15.2061C109.816 14.7884 109 14.2529 108.432 13.5996C107.9 12.9677 108.21 12.6035 109.363 12.5072ZM-52.3282 14.1297L-54.2975 14.0976C-55.3087 14.0869 -55.699 14.376 -55.4684 14.965C-55.3265 15.3613 -55.0604 15.7254 -54.67 16.0575C-54.5349 16.1692 -54.3625 16.2628 -54.1642 16.3321C-53.9658 16.4014 -53.7457 16.445 -53.5179 16.4601C-53.29 16.4752 -53.0595 16.4615 -52.8409 16.4199C-52.6224 16.3782 -52.4206 16.3095 -52.2484 16.2182C-51.663 15.9183 -51.3082 15.4952 -51.184 14.949C-51.1616 14.8489 -51.1741 14.7471 -51.2208 14.6502C-51.2675 14.5533 -51.3474 14.4633 -51.4551 14.3862C-51.5629 14.309 -51.6963 14.2463 -51.8467 14.2021C-51.9971 14.1579 -52.1611 14.1333 -52.3282 14.1297ZM-65.4477 14.9811L-64.2768 15.5434C-64.0858 15.63 -63.8575 15.6826 -63.6191 15.6949C-63.3807 15.7071 -63.1422 15.6785 -62.932 15.6125C-62.7218 15.5465 -62.5487 15.4459 -62.4333 15.3226C-62.3179 15.1992 -62.265 15.0585 -62.2809 14.9169C-62.3342 14.0494 -62.822 13.2408 -63.7446 12.4911C-64.3478 12.0198 -65.0752 11.9341 -65.9268 12.234C-67.7541 12.8766 -69.6612 13.3157 -71.6482 13.5513C-72.5884 13.6691 -72.9611 14.0119 -72.7659 14.5795L-72.3667 15.7041C-72.0828 16.4966 -71.5506 16.5662 -70.77 15.9129C-70.0781 15.3346 -69.191 14.933 -68.1088 14.7081C-67.1331 14.5153 -66.246 14.6063 -65.4477 14.9811ZM-80.8824 14.3064C-80.9711 14.2743 -81.0687 14.2582 -81.1751 14.2582C-81.9734 14.301 -82.0533 14.5313 -81.4146 14.949C-80.6695 15.4523 -79.7469 15.8593 -78.647 16.1699C-77.9197 16.3841 -77.3963 16.261 -77.077 15.8005C-76.8109 15.4042 -76.7222 14.9758 -76.8109 14.5153C-76.9351 13.8834 -77.5116 13.6478 -78.5406 13.8084C-78.9309 13.8727 -79.2679 14.0012 -79.5518 14.194C-79.9598 14.4831 -80.4034 14.5206 -80.8824 14.3064ZM196.889 15.2703C195.806 13.9851 195.638 12.7534 196.383 11.5753C196.464 11.452 196.488 11.3178 196.451 11.187C196.415 11.0561 196.32 10.9334 196.175 10.8315C196.031 10.7297 195.843 10.6525 195.632 10.6082C195.42 10.5638 195.192 10.5538 194.973 10.5793C194.139 10.6757 193.349 10.8738 192.604 11.1737C192.423 11.2461 192.267 11.3401 192.148 11.4499C192.029 11.5598 191.948 11.6832 191.911 11.8125C191.873 11.9419 191.88 12.0746 191.931 12.2023C191.981 12.33 192.075 12.4501 192.205 12.5553L195.931 15.6238C196.008 15.7005 196.133 15.7554 196.278 15.7764C196.423 15.7975 196.575 15.7831 196.702 15.7362C196.829 15.6894 196.92 15.6139 196.955 15.5265C196.99 15.4391 196.966 15.347 196.889 15.2703ZM190.248 12.3368C190.151 12.2853 190.02 12.2587 189.861 12.2584C189.702 12.2581 189.52 12.2842 189.324 12.3352C189.128 12.3862 188.923 12.461 188.719 12.5555C188.516 12.65 188.319 12.7623 188.139 12.8859C187.959 13.0096 187.8 13.1422 187.671 13.2761C187.542 13.41 187.445 13.5427 187.387 13.6665C187.328 13.7904 187.309 13.903 187.33 13.9979C187.351 14.0928 187.411 14.1681 187.509 14.2197C187.606 14.2712 187.737 14.2978 187.896 14.2981C188.054 14.2984 188.237 14.2723 188.433 14.2213C188.629 14.1703 188.834 14.0955 189.038 14.001C189.241 13.9065 189.438 13.7942 189.618 13.6706C189.798 13.5469 189.957 13.4143 190.086 13.2804C190.215 13.1465 190.312 13.0138 190.37 12.8899C190.429 12.7661 190.448 12.6535 190.427 12.5586C190.406 12.4637 190.346 12.3883 190.248 12.3368ZM147.897 10.4669L144.677 11.1416C143.595 11.3772 143.293 11.8056 143.772 12.4268C144.233 13.0694 144.987 13.5888 146.034 13.9851C146.974 14.36 147.844 14.3064 148.642 13.8245C150.132 12.957 150.611 12.052 150.079 11.1095C149.706 10.4562 148.979 10.2419 147.897 10.4669ZM-19.4897 14.1297C-18.0349 14.526 -16.9882 14.6224 -16.3495 14.4189C-16.1104 14.3439 -15.908 14.2324 -15.7625 14.0955C-15.6169 13.9586 -15.5332 13.8011 -15.5198 13.6387C-15.5063 13.4762 -15.5637 13.3145 -15.6859 13.1695C-15.808 13.0245 -15.991 12.9014 -16.2164 12.8124C-17.2099 12.4375 -18.2035 12.4161 -19.197 12.7481C-19.8179 12.9516 -20.1549 13.1658 -20.2081 13.3907C-20.239 13.5444 -20.1854 13.6999 -20.0555 13.8334C-19.9257 13.9669 -19.727 14.0711 -19.4897 14.1297ZM-82.3503 12.1984C-82.2255 12.3104 -82.0152 12.3862 -81.7312 12.4213C-81.4472 12.4564 -81.0952 12.4501 -80.6953 12.4028C-80.2953 12.3556 -79.8552 12.2684 -79.4001 12.146C-78.945 12.0237 -78.4839 11.8686 -78.043 11.6898C-77.6021 11.5109 -77.1901 11.3117 -76.8304 11.1035C-76.4708 10.8954 -76.1707 10.6824 -75.9471 10.4767C-75.7236 10.2709 -75.5811 10.0766 -75.5276 9.90462C-75.4741 9.73264 -75.5109 9.58642 -75.6356 9.47436C-75.7604 9.36229 -75.9708 9.28658 -76.2548 9.2515C-76.5388 9.21641 -76.8908 9.22259 -77.2908 9.26982C-77.6907 9.31705 -78.1308 9.40437 -78.5859 9.52673C-79.041 9.64908 -79.5021 9.80412 -79.9431 9.98297C-80.384 10.1618 -80.7959 10.361 -81.1555 10.5691C-81.5151 10.7773 -81.8153 10.9903 -82.0388 11.196C-82.2623 11.4017 -82.4049 11.5961 -82.4584 11.7681C-82.5118 11.9401 -82.475 12.0863 -82.3503 12.1984ZM119.874 11.373C119.947 11.5402 120.098 11.6932 120.32 11.8231C120.541 11.9531 120.828 12.0575 121.164 12.1304C121.501 12.2033 121.879 12.2433 122.279 12.2481C122.678 12.2528 123.091 12.2223 123.493 12.1582C123.895 12.094 124.278 11.9976 124.622 11.8743C124.965 11.7511 125.262 11.6035 125.494 11.4398C125.727 11.2762 125.891 11.0998 125.977 10.9207C126.063 10.7417 126.07 10.5634 125.997 10.3962C125.924 10.2289 125.772 10.076 125.55 9.946C125.329 9.81602 125.042 9.71151 124.706 9.6386C124.37 9.56567 123.991 9.5257 123.592 9.52094C123.192 9.51619 122.78 9.54682 122.378 9.61095C121.976 9.67509 121.592 9.77145 121.248 9.89471C120.905 10.018 120.609 10.1657 120.376 10.3293C120.143 10.4929 119.979 10.6693 119.893 10.8484C119.807 11.0274 119.8 11.2057 119.874 11.373ZM-29.2294 9.13343C-29.123 8.92994 -29.1142 8.72645 -29.2029 8.52296C-29.5045 7.86964 -30.1786 7.67689 -31.2253 7.94464C-32.8043 8.36234 -33.2744 9.13882 -32.6357 10.2741C-32.4964 10.5256 -32.2145 10.7393 -31.8395 10.8774C-31.4646 11.0156 -31.0209 11.0693 -30.5867 11.0291C-29.0964 10.9006 -28.6086 10.5364 -29.123 9.93668C-29.3359 9.67964 -29.3713 9.41189 -29.2294 9.13343ZM132.548 9.44749C132.671 9.58947 132.853 9.7112 133.084 9.80559C133.314 9.89998 133.587 9.96524 133.889 9.99767C134.191 10.0301 134.515 10.029 134.842 9.99454C135.169 9.96008 135.494 9.89288 135.797 9.79677C136.41 9.60268 136.898 9.30267 137.155 8.96272C137.411 8.62276 137.415 8.27075 137.166 7.98405C137.043 7.84208 136.861 7.72035 136.631 7.62596C136.401 7.53157 136.127 7.46631 135.825 7.43388C135.523 7.40144 135.2 7.40255 134.872 7.43701C134.545 7.47147 134.22 7.53867 133.917 7.63478C133.305 7.82887 132.816 8.12887 132.56 8.46883C132.303 8.80878 132.299 9.1608 132.548 9.44749ZM27.0007 7.55909L21.2792 9.34229C20.2679 9.65288 20.33 9.86712 21.4655 9.98493C23.9315 10.2313 26.1668 10.017 28.1716 9.34229C28.4497 9.2503 28.6578 9.09678 28.7521 8.91399C28.8464 8.73119 28.8196 8.53341 28.6772 8.36234L28.1982 7.78402C27.9321 7.46272 27.5329 7.38773 27.0007 7.55909ZM14.5286 6.78055C13.9859 6.56538 13.2823 6.52737 12.5726 6.67484C11.8628 6.82232 11.205 7.1432 10.7439 7.56693C10.2828 7.99071 10.0562 8.48265 10.1139 8.93448C10.1716 9.38631 10.5089 9.76099 11.0515 9.9762C11.5942 10.1914 12.2979 10.2295 13.0076 10.082C13.7174 9.93452 14.3752 9.61355 14.8363 9.18981C15.2974 8.76604 15.524 8.27419 15.4663 7.82236C15.4086 7.37053 15.0713 6.99576 14.5286 6.78055ZM-55.6281 8.10535C-55.9119 8.21245 -56.2224 8.26595 -56.5595 8.26595C-57.4111 8.24453 -57.5974 8.44803 -57.1183 8.87643C-56.5861 9.34767 -55.8853 9.59932 -55.016 9.63145C-53.9515 9.67429 -53.3217 9.37978 -53.1266 8.74789C-52.8073 7.73044 -53.2064 6.78794 -54.3241 5.92043C-54.4485 5.81828 -54.6312 5.74756 -54.8369 5.72177C-55.0425 5.69598 -55.2567 5.71692 -55.4383 5.78069C-55.6199 5.84447 -55.756 5.94653 -55.8205 6.06721C-55.885 6.18789 -55.8734 6.31871 -55.7878 6.43452L-55.2023 7.36632C-55.0071 7.67691 -55.149 7.92328 -55.6281 8.10535ZM-42.66 5.96572C-42.9256 5.98825 -43.1475 6.15072 -43.277 6.41726C-43.4064 6.6838 -43.4329 7.03259 -43.3503 7.38701C-43.2678 7.74141 -43.0832 8.07238 -42.837 8.30704C-42.5909 8.54171 -42.3035 8.66088 -42.0379 8.63835C-41.7723 8.61582 -41.5503 8.45337 -41.4208 8.18683C-41.2914 7.92029 -41.2651 7.5715 -41.3476 7.21708C-41.4301 6.86267 -41.6146 6.53172 -41.8608 6.29705C-42.1069 6.06239 -42.3945 5.94319 -42.66 5.96572ZM168.816 3.94602C168.428 3.95586 168.07 4.16316 167.82 4.52229C167.57 4.88141 167.45 5.36295 167.484 5.861C167.501 6.10762 167.556 6.3509 167.645 6.57689C167.735 6.80288 167.857 7.00719 168.005 7.17815C168.152 7.34911 168.323 7.48331 168.507 7.5732C168.691 7.6631 168.885 7.7069 169.077 7.70205C169.465 7.69221 169.823 7.48492 170.073 7.12579C170.322 6.76667 170.443 6.28513 170.409 5.78707C170.392 5.54045 170.337 5.29726 170.248 5.07127C170.158 4.84528 170.036 4.64098 169.888 4.47002C169.74 4.29906 169.57 4.16476 169.386 4.07486C169.202 3.98496 169.008 3.94117 168.816 3.94602Z" fill="#C4C4C4" fill-opacity="0.9"/>
</g>
<defs>
<clipPath id="clip0_29_91">
<rect width="655" height="122" fill="white" transform="translate(-108)"/>
</clipPath>
</defs>
</svg>
