<svg width="19" height="18" viewBox="0 0 19 18" fill="none" xmlns="http://www.w3.org/2000/svg">
<path d="M16.9287 9C16.9287 13.347 13.4046 16.875 9.05371 16.875C4.70277 16.875 1.17871 13.347 1.17871 9C1.17871 4.64906 4.70277 1.125 9.05371 1.125C13.4046 1.125 16.9287 4.64906 16.9287 9Z" fill="#283544"/>
<path d="M12.7449 7.00728C12.7019 7.03235 11.6789 7.5614 11.6789 8.73442C11.7272 10.0722 12.9699 10.5413 12.9912 10.5413C12.9699 10.5664 12.8036 11.1804 12.311 11.8241C11.92 12.3785 11.4861 12.9375 10.8272 12.9375C10.2004 12.9375 9.97536 12.568 9.25215 12.568C8.47548 12.568 8.25572 12.9375 7.66107 12.9375C7.00214 12.9375 6.53607 12.3485 6.1238 11.7993C5.5882 11.0805 5.13296 9.95237 5.11689 8.8692C5.10606 8.29523 5.22415 7.73102 5.52392 7.25178C5.94702 6.58274 6.70237 6.12857 7.52726 6.1136C8.15929 6.09374 8.72179 6.51795 9.10751 6.51795C9.47715 6.51795 10.1682 6.1136 10.9501 6.1136C11.2876 6.11392 12.1876 6.20866 12.7449 7.00728ZM9.05405 5.999C8.94155 5.47483 9.25215 4.95067 9.54143 4.61631C9.91108 4.21195 10.4949 3.9375 10.9983 3.9375C11.0305 4.46166 10.8268 4.97574 10.4627 5.35014C10.1361 5.75449 9.57358 6.0589 9.05405 5.999Z" fill="white"/>
</svg>
