<svg width="299" height="101" viewBox="0 0 299 101" fill="none" xmlns="http://www.w3.org/2000/svg">
<path d="M200.178 20.2127C199.203 20.67 198.146 20.6779 197.008 20.2364C196.475 20.0235 196.107 20.1733 195.902 20.6857C195.255 22.3177 195.738 23.516 197.352 24.2807C197.514 24.3562 197.691 24.3956 197.871 24.3959C198.05 24.3961 198.228 24.3572 198.39 24.2822C198.552 24.2071 198.694 24.0978 198.806 23.9624C198.917 23.827 198.996 23.669 199.035 23.5002C199.33 22.2625 200.125 21.821 201.419 22.1758C201.878 22.3019 201.886 22.4438 201.444 22.6015C200.862 22.7986 200.395 23.1494 200.043 23.6539C199.781 24.0324 199.826 24.3792 200.178 24.6946C200.391 24.8917 200.543 25.1321 200.633 25.416C200.813 26.0545 200.62 26.1885 200.055 25.818C199.424 25.4081 198.72 25.1715 197.942 25.1085C195.787 24.9114 194.755 23.784 194.845 21.7264C194.862 21.3874 194.739 21.0996 194.477 20.8631C194.026 20.4689 193.494 20.3783 192.879 20.5911C192.699 20.6542 192.58 20.7803 192.523 20.9695C192.482 21.1036 192.42 21.2179 192.339 21.3125C192.117 21.5805 191.966 21.549 191.884 21.2179L191.564 19.9526C189.246 18.7306 186.789 18.1354 184.192 18.1669C183.766 18.1669 183.393 18.0289 183.074 17.753C182.926 17.619 182.75 17.5441 182.545 17.5283C182.242 17.5126 181.964 17.5835 181.71 17.7412C180.833 18.2852 179.867 18.3246 178.81 17.8595C178.601 17.7638 178.418 17.6212 178.277 17.4444C178.136 17.2677 178.042 17.0621 178.003 16.8458C177.965 16.6296 177.982 16.4094 178.054 16.2046C178.126 15.9998 178.251 15.8168 178.417 15.6717C178.564 15.5456 178.658 15.3919 178.699 15.2105C178.757 14.9504 178.732 14.6863 178.626 14.4182C177.995 12.8178 178.29 11.3121 179.51 9.90087C179.548 9.8591 179.572 9.80729 179.577 9.75231C179.582 9.69734 179.57 9.64178 179.54 9.59304C179.511 9.54429 179.466 9.50465 179.413 9.47938C179.359 9.4541 179.299 9.44439 179.24 9.45152C178.142 9.63284 177.053 9.60917 175.971 9.38055C175.57 9.29383 175.365 9.44756 175.357 9.84174C175.333 12.1201 175.926 13.9688 177.139 15.3879C177.286 15.5613 177.356 15.7624 177.348 15.991C177.258 17.6229 177.167 19.2549 177.077 20.8868C177.079 20.8962 177.077 20.9058 177.071 20.9136C177.065 20.9214 177.056 20.9266 177.047 20.9282C177.037 20.9297 177.027 20.9275 177.019 20.9219C177.011 20.9164 177.005 20.908 177.004 20.8986C175.513 18.4862 174.227 17.0671 173.145 16.6414C172.736 16.4759 172.441 16.5941 172.261 16.9962C171.81 18.0289 171.704 19.1878 171.941 20.4729C174.087 22.5699 176.545 23.4608 179.314 23.1454C180.403 23.0193 180.968 22.2625 181.009 20.8749C181.011 20.8555 181.017 20.8365 181.026 20.8194C181.035 20.8023 181.048 20.7875 181.063 20.7761C181.079 20.7648 181.096 20.7571 181.114 20.7538C181.133 20.7504 181.151 20.7514 181.169 20.7567L181.501 20.8276C181.829 20.8986 181.923 21.0799 181.784 21.3716C181.284 22.4753 180.579 23.3741 179.67 24.0678C179.301 24.3517 178.884 24.4541 178.417 24.3753C176.434 24.06 174.538 23.516 172.728 22.7434C172.343 22.5778 172.097 22.298 171.99 21.9038C171.867 21.4386 171.851 20.9617 171.941 20.4729L170.712 18.6991C170.578 18.5054 170.388 18.3526 170.167 18.2585C169.945 18.1644 169.7 18.1329 169.461 18.1676C169.221 18.2023 168.997 18.3018 168.814 18.4545C168.631 18.6072 168.497 18.8069 168.427 19.0302C168.001 20.4019 168.333 21.4741 169.422 22.2467C169.553 22.3334 169.635 22.4477 169.668 22.5897C169.717 22.7473 169.717 22.9011 169.668 23.0508C169.586 23.2795 169.422 23.378 169.176 23.3465L167.026 23.0863C166.567 23.0311 166.236 22.8064 166.031 22.4123C165.629 21.6554 165.056 21.0011 164.311 20.4492C163.827 20.0945 163.655 20.2009 163.794 20.7685L164.261 22.6133C164.442 23.3386 164.196 23.512 163.524 23.1336L162.984 22.8143C162.721 22.6724 162.672 22.4753 162.836 22.223C163.369 21.3953 163.242 20.7528 162.455 20.2955C162.168 20.1221 162.148 19.925 162.394 19.7042C163.983 18.2615 164.081 16.7005 162.689 15.0213C162.336 14.5877 162.082 14.639 161.927 15.1751C161.796 15.6323 161.91 15.9792 162.271 16.2157C162.754 16.531 162.803 16.8976 162.418 17.3155C161.345 18.5059 160.145 19.3219 158.818 19.7633C158.294 19.7082 157.88 19.8619 157.577 20.2246C157.274 20.5793 157.315 20.8947 157.7 21.1706C158.085 21.4465 158.326 21.8052 158.425 22.2467C158.531 22.7749 158.351 22.8971 157.884 22.6133C156.516 21.7855 156.229 20.4808 157.024 18.6991C157.237 18.2339 157.528 18.1866 157.896 18.5572C158.15 18.8015 158.458 19.2036 158.818 19.7633L158.351 15.317C158.346 15.2577 158.327 15.2002 158.297 15.1485C158.266 15.0968 158.224 15.052 158.174 15.0172C158.124 14.9824 158.067 14.9584 158.006 14.9469C157.945 14.9354 157.883 14.9365 157.823 14.9504L157.503 15.0213C157.414 15.0406 157.33 15.077 157.256 15.1283C157.183 15.1797 157.12 15.2448 157.073 15.32C157.026 15.3951 156.995 15.4786 156.983 15.5655C156.97 15.6523 156.976 15.7408 156.999 15.8255C157.376 17.1578 156.979 18.1984 155.808 18.9474C155.537 19.1208 155.242 19.2036 154.923 19.1957C154.497 19.18 154.284 19.0499 154.284 18.8055C154.292 18.1827 154.063 18.0881 153.596 18.5217C152.793 19.2706 151.81 19.5111 150.647 19.243C149.991 19.0932 149.537 19.31 149.283 19.8934C149.103 20.327 148.779 20.4768 148.312 20.3428C147.903 20.2324 147.624 20.0274 147.477 19.7279C146.879 18.5769 146.023 17.6545 144.908 16.9607C144.761 16.8661 144.638 16.8897 144.54 17.0317V17.0435C144.442 17.1775 144.466 17.2918 144.614 17.3864C145.523 17.9383 146.08 18.6557 146.285 19.5387C146.342 19.7775 146.333 20.0266 146.259 20.2612C146.186 20.4958 146.05 20.7078 145.865 20.8762C145.68 21.0447 145.452 21.1637 145.205 21.2216C144.957 21.2794 144.698 21.2741 144.454 21.2061C142.127 20.5596 139.719 20.1654 137.229 20.0235C136.86 19.9999 136.725 19.8146 136.823 19.4677C137.02 18.7739 137.089 18.0644 137.032 17.3391C136.991 16.8109 136.786 16.7439 136.418 17.1381C135.672 17.9265 135.631 18.774 136.295 19.6806C136.557 20.0432 136.479 20.3191 136.061 20.5084C134.931 21.0169 133.518 21.3598 132.351 20.7685C129.954 19.5623 127.546 21.3598 125.703 19.3495C123.491 16.9371 121.587 18.8055 119.08 18.2379C118.392 18.0802 117.892 17.7412 117.581 17.2209C117.179 16.5271 117.356 16.3379 118.109 16.6532L119.707 17.3037C119.807 17.3457 119.919 17.355 120.026 17.3302C120.132 17.3054 120.227 17.2478 120.297 17.1663C120.366 17.0847 120.406 16.9836 120.411 16.8782C120.415 16.7728 120.384 16.6689 120.321 16.5823L119.719 15.7545C119.661 15.6812 119.588 15.6225 119.504 15.5833C119.421 15.5442 119.33 15.5258 119.24 15.5298C118.085 15.5535 116.962 15.25 115.873 14.6193C115.521 14.4143 115.398 14.1226 115.504 13.7442L115.983 11.9703C116.123 11.4421 116.393 11.3751 116.794 11.7693C116.991 11.9585 117.04 12.1714 116.942 12.4079C116.811 12.7154 116.917 12.8848 117.261 12.9164L118.318 13.011C118.687 13.0504 118.957 12.9085 119.129 12.5853L119.879 11.1307C120.19 10.5395 120.026 10.3621 119.387 10.5986C119.133 10.6853 118.912 10.8193 118.724 11.0007C118.649 11.0747 118.56 11.1334 118.461 11.1731C118.363 11.2128 118.257 11.2327 118.15 11.2316C118.043 11.2305 117.937 11.2084 117.839 11.1666C117.741 11.1249 117.653 11.0644 117.581 10.9888C117.024 10.4212 116.946 9.81022 117.347 9.15588C117.528 8.8563 117.438 8.7065 117.077 8.7065C116.946 8.7065 116.835 8.74986 116.745 8.83658C115.549 9.99548 114.996 11.2648 115.086 12.6444C115.119 13.0859 115.013 13.4919 114.767 13.8624C114.357 14.4852 114.493 14.974 115.172 15.3288C115.631 15.5732 115.873 15.9477 115.897 16.4522C115.914 16.7518 116.016 17.0238 116.205 17.2682C116.5 17.6387 116.418 17.7491 115.959 17.5993C113.338 16.74 111.003 17.0159 108.955 18.4271C107.546 19.4046 106.121 19.4204 104.679 18.4744C103.548 17.7412 102.242 17.2169 100.759 16.9016C100.456 16.8306 100.194 16.9055 99.9727 17.1263L99.5427 17.5756C99.215 17.8989 98.8382 17.9738 98.4122 17.8003C97.2654 17.3273 96.0817 17.1026 94.8611 17.1263C94.3286 17.1341 94.0665 16.8819 94.0747 16.3694L94.0993 14.6429C94.1074 14.3354 93.96 14.2251 93.6569 14.3118L93.1654 14.43C93.0717 14.4536 92.9875 14.5046 92.9239 14.5763C92.8602 14.6481 92.8202 14.7373 92.8091 14.8321C92.7353 15.4313 92.7804 16.0186 92.9442 16.5941C92.9639 16.665 92.9661 16.7393 92.9508 16.811C92.9355 16.8827 92.9031 16.9496 92.8562 17.0063C92.8094 17.0629 92.7494 17.1077 92.6814 17.1368C92.6133 17.1659 92.5392 17.1785 92.465 17.1736C91.8506 17.1499 91.4615 16.8425 91.2977 16.2512C91.2714 16.1523 91.224 16.0597 91.1584 15.9795C91.0928 15.8993 91.0105 15.8331 90.9168 15.7852C90.8231 15.7374 90.7201 15.7088 90.6143 15.7015C90.5085 15.6942 90.4022 15.7082 90.3024 15.7427C86.6898 16.9607 82.0328 16.4522 82.2417 11.6156C82.2499 11.3002 82.0902 11.1307 81.7625 11.1071L81.3939 11.0834C81.1481 11.0598 81.0007 11.1662 80.9515 11.4027C80.7631 12.333 80.8164 13.2081 81.1113 14.028C81.3325 14.635 81.1154 14.8952 80.46 14.8085C78.2606 14.5247 76.4789 14.3946 74.2548 14.9149C64.5967 17.1854 55.4835 18.3009 46.9149 18.2615C33.7672 18.1984 22.1513 18.2694 12.0673 18.4744C8.96262 18.5453 5.70641 18.8212 2.29866 19.3021C2.08726 19.3316 1.89515 19.4357 1.76074 19.5936C1.62633 19.7514 1.55953 19.9514 1.57369 20.1536C1.73753 22.5739 1.99964 24.935 2.36008 27.2371C3.06047 31.6953 1.95458 36.0471 1.58595 40.4462C1.545 40.864 1.65561 41.2424 1.91774 41.5814L2.54442 42.4329C2.97858 43.0084 2.82701 43.3355 2.08975 43.4144C1.40164 43.4853 0.820053 43.7218 0.344933 44.1239C0.0172634 44.4077 -0.076955 44.7506 0.0623044 45.1527C1.26649 48.6885 4.59643 49.741 8.07382 50.0366C8.61447 50.084 8.78241 50.352 8.57762 50.8408C7.4062 53.5528 7.77073 55.9928 9.67121 58.1608C9.91696 58.4446 9.96611 58.7599 9.81866 59.1068C9.13055 60.7072 8.48751 62.2287 7.88951 63.6715C7.25875 65.193 6.99251 66.6357 7.09081 67.9996C7.50859 74.0779 8.78651 80.0143 10.9246 85.8088C11.5635 87.5274 12.6612 88.8756 14.2176 89.8531C14.6436 90.1133 14.9385 90.0147 15.1023 89.5575C15.217 89.2264 15.2088 88.911 15.0777 88.6114C14.8811 88.1778 15.0245 87.894 15.5078 87.76C15.8027 87.6812 16.0567 87.7482 16.2696 87.9611C17.6336 89.3092 19.2801 91.3668 21.4919 91.1303C22.9664 90.9647 23.7487 90.8859 23.8388 90.8938C35.0942 91.6348 45.9647 91.9581 56.4501 91.8635C66.9682 91.7689 75.1518 91.8043 81.0007 91.9699C91.1584 92.2695 101.107 92.4666 110.847 92.5612C112.592 92.5769 116.033 92.7661 121.169 93.1288C125.789 93.4599 130.36 93.1406 134.943 93.519C141.488 94.0551 148.251 94.2443 155.23 94.0867C156.262 94.0709 157.294 94.1694 158.326 94.3823C159.592 94.6425 161.14 94.0275 162.541 94.0867C166.85 94.2838 171.065 94.5755 175.185 94.9618C179.674 95.3796 183.877 95.7186 187.792 95.9787C193.731 96.365 199.854 96.9011 206.162 97.587C212.257 98.2492 219.113 98.4739 225.404 99.3135C230.442 99.9994 234.927 98.9706 239.572 97.6107C241.432 97.0667 243.267 97.0391 245.077 97.5279C246.494 97.9142 247.907 98.0876 249.316 98.0482C253.363 97.9378 257.528 98.3754 261.813 99.3608C262.955 99.621 264.467 99.5737 265.646 99.5146C266.048 99.483 266.4 99.3372 266.703 99.077C267.391 98.47 268.03 98.2965 268.62 98.5567C270.979 99.621 275.317 102.353 277.602 100.189C277.713 100.083 277.848 100.003 277.998 99.9555C278.147 99.9083 278.306 99.895 278.462 99.9166C281.411 100.35 283.009 99.2662 283.254 96.6646C283.305 96.1357 283.555 95.6424 283.957 95.2769C284.359 94.9113 284.887 94.6984 285.442 94.6779L287.408 94.607C287.635 94.5993 287.851 94.5121 288.016 94.3619C288.181 94.2117 288.284 94.0088 288.305 93.791C288.477 92.0881 289.415 90.8347 291.119 90.0305C291.569 89.8177 291.635 89.526 291.315 89.1554L289.042 86.5065C288.739 86.1517 288.686 85.7615 288.882 85.3358C289.808 83.3097 291.094 81.9497 292.74 81.256C294.928 80.3257 296.885 79.155 298.614 77.7438C299.204 77.2629 299.118 77.1013 298.356 77.259C296.677 77.598 294.936 77.259 293.134 76.242C292.56 75.9109 291.946 75.7532 291.291 75.7689C290.824 75.7847 290.713 75.9818 290.959 76.3602L291.536 77.259C291.626 77.4058 291.755 77.527 291.911 77.6101C292.066 77.6933 292.242 77.7353 292.421 77.732C293.306 77.7241 294.117 77.9054 294.854 78.276C295.313 78.5046 295.329 78.7569 294.903 79.0328C294.231 79.4664 293.576 79.5571 292.937 79.3048C292.454 79.1077 292.134 79.2496 291.979 79.7305C291.807 80.2508 291.532 80.7238 291.155 81.1496C290.992 81.3309 290.799 81.3742 290.578 81.2796L290.283 81.1614C289.939 81.0195 289.865 80.7948 290.062 80.4873L291.241 78.7372C291.495 78.3666 291.446 78.0355 291.094 77.7438C290.521 77.2866 290.148 76.6874 289.976 75.9463C289.886 75.5758 289.648 75.3432 289.263 75.2486C287.428 74.7756 285.683 74.0858 284.029 73.1792C282.087 72.0991 280.367 71.4093 278.868 71.1097C261.321 67.6094 244.831 64.6885 229.398 62.347C228.497 62.213 227.567 61.9252 226.609 61.4837C225.921 61.1684 225.962 61.0107 226.732 61.0107C227.69 61.0107 228.517 61.2433 229.214 61.7084C229.388 61.8242 229.586 61.9039 229.795 61.9426C230.005 61.9812 230.221 61.978 230.43 61.9331C232.879 61.397 235.259 61.4325 237.569 62.0395C241.133 62.9619 244.622 62.6781 248.296 62.8437C248.689 62.8594 249.025 62.7333 249.304 62.4652L250.348 61.4483C250.602 61.2039 250.86 61.2039 251.122 61.4483L251.454 61.7675C251.634 61.9489 251.856 62.0159 252.118 61.9686C252.773 61.8346 253.088 61.4759 253.064 60.8925C253.056 60.5535 253.183 60.4983 253.445 60.7269C254.084 61.3024 254.886 61.7242 255.853 61.9922C256.06 62.0458 256.242 62.1669 256.369 62.3352C256.508 62.5244 256.59 62.7136 256.615 62.9028C256.648 63.1551 256.791 63.3009 257.045 63.3403C264.631 64.4362 272.306 65.1063 280.072 65.3507C280.473 65.3664 280.678 65.1812 280.686 64.7949C280.695 64.1248 280.834 63.4941 281.104 62.9028C281.252 62.5875 281.157 62.3588 280.822 62.2169C280.453 62.0671 280.043 62.0514 279.593 62.1696C279.529 62.1858 279.471 62.2162 279.422 62.2582C279.373 62.3002 279.335 62.3526 279.311 62.4114C279.287 62.4701 279.278 62.5333 279.284 62.5961C279.291 62.6589 279.312 62.7194 279.347 62.7727C279.453 62.9304 279.445 63.0644 279.322 63.1748C279.126 63.364 278.974 63.3325 278.868 63.0802C278.622 62.4968 278.266 62.0001 277.799 61.5902C277.512 61.3379 277.34 61.397 277.283 61.7675L277.037 63.293C276.971 63.7345 276.717 64.0183 276.275 64.1445C275.841 64.2627 275.411 64.2115 274.985 63.9907C274.633 63.8094 274.26 63.7345 273.867 63.7661C272.261 63.8685 270.75 63.8528 269.333 63.7188C268.776 63.6636 268.341 63.4192 268.03 62.9856C267.968 62.8987 267.939 62.7942 267.948 62.6904C267.957 62.5866 268.003 62.4902 268.079 62.418L268.472 62.0395C268.653 61.8661 268.812 61.8858 268.952 62.0987C269.386 62.7609 269.988 63.0013 270.758 62.82C271.176 62.7175 271.36 62.4613 271.311 62.0514L271.262 61.7321C271.204 61.3142 270.955 61.1093 270.512 61.1171C269.603 61.1329 269.296 60.7584 269.591 59.9937C269.641 59.8653 269.729 59.7547 269.843 59.6765C269.957 59.5983 270.092 59.5563 270.23 59.5562C270.918 59.5562 271.553 59.3552 272.134 58.9531C272.323 58.827 272.531 58.7521 272.761 58.7284C274.891 58.5155 276.971 58.074 279.003 57.4039C279.413 57.262 279.417 57.1123 279.015 56.9546C278.712 56.8363 278.43 56.8679 278.167 57.0492C277.692 57.3961 277.43 57.2817 277.381 56.7062C277.356 56.3515 277.487 56.044 277.774 55.7838C280.346 53.5291 283.107 52.7683 286.056 53.5015C286.744 53.6671 286.863 53.4858 286.412 52.9575C285.896 52.3505 285.597 51.6568 285.515 50.8763C285.474 50.4584 285.569 50.0682 285.798 49.7055L287.408 47.1039C287.621 46.757 287.916 46.489 288.292 46.2998C289.423 45.7243 290.508 45.0226 291.549 44.1948C291.819 43.9899 291.95 43.7218 291.942 43.3907C291.939 43.3142 291.918 43.2395 291.879 43.1726C291.84 43.1058 291.785 43.0487 291.718 43.006C291.651 42.9633 291.574 42.9363 291.493 42.9271C291.412 42.9179 291.33 42.9269 291.254 42.9532C290.77 43.1187 290.287 43.1384 289.804 43.0123C289.279 42.8704 289.046 42.5432 289.103 42.0308C289.193 41.0611 288.845 40.3161 288.059 39.7958C285.511 38.1323 282.935 37.6553 280.33 38.3649C280.225 38.3909 280.115 38.3959 280.008 38.3796C279.9 38.3634 279.796 38.3262 279.703 38.2703C279.351 38.0574 279.208 37.7933 279.273 37.478C279.355 37.0995 279.2 36.9498 278.806 37.0286C277.594 37.2572 276.648 36.9458 275.968 36.0944C275.698 35.7554 275.341 35.6292 274.899 35.716C274.67 35.7633 274.432 35.7593 274.186 35.7041C273.785 35.6174 273.482 35.4006 273.277 35.0537C272.507 33.8081 271.311 33.272 269.689 33.4455C269.181 33.5006 268.976 33.2917 269.075 32.8187C269.304 31.6362 269.218 30.3275 268.817 28.8926C268.694 28.4511 268.395 28.2186 267.92 28.1949C267.477 28.1792 267.043 28.2422 266.617 28.3841C266.15 28.5497 265.736 28.4709 265.376 28.1476C264.45 27.312 264.139 26.429 264.442 25.4987C264.581 25.0494 264.426 24.9074 263.975 25.073C263.566 25.2228 263.254 25.5027 263.041 25.9126C262.968 26.0504 262.937 26.2052 262.952 26.3583C262.967 26.5115 263.028 26.6565 263.127 26.7759C263.553 27.2962 263.57 27.8244 263.177 28.3605C262.89 28.7547 262.992 29.0109 263.484 29.1292C264.549 29.3814 265.184 30.1264 265.388 31.3642C265.437 31.6638 265.339 31.9081 265.093 32.0974C264.364 32.6807 263.578 33.1301 262.734 33.4455C262.636 33.4849 262.55 33.4691 262.476 33.3982L262.169 33.0907C261.759 32.6886 261.837 32.4206 262.402 32.2866C263.435 32.0422 263.832 31.4745 263.594 30.5837C263.471 30.1501 263.197 29.8347 262.771 29.6376C261.55 29.0858 260.547 28.2856 259.761 27.2371C259.523 26.9296 259.314 26.9414 259.134 27.2725L258.974 27.5682C258.947 27.6158 258.939 27.6721 258.952 27.7265C258.966 27.7809 259 27.8297 259.048 27.8638C259.474 28.124 259.769 28.4472 259.933 28.8335C259.98 28.9412 259.996 29.0594 259.979 29.1752C259.962 29.2911 259.912 29.4001 259.834 29.4904C259.757 29.5808 259.655 29.6489 259.54 29.6873C259.426 29.7258 259.302 29.7332 259.183 29.7086C258.118 29.4957 257.18 29.5627 256.369 29.9096C255.804 30.154 255.521 29.9806 255.521 29.3893C255.521 28.7902 255.652 28.2541 255.915 27.7811C256.136 27.3869 256.017 27.1701 255.558 27.1306C255.116 27.0912 254.694 27.1267 254.293 27.2371C253.908 27.3396 253.768 27.5761 253.875 27.9466C254.252 29.2711 253.686 30.2802 252.179 30.9739C251.888 31.106 251.563 31.1485 251.246 31.0956C250.929 31.0427 250.637 30.897 250.41 30.6783L244.929 25.4278C244.733 25.2386 244.516 25.2188 244.278 25.3686C244.139 25.4554 243.987 25.5184 243.824 25.5579C243.455 25.6525 243.111 25.5973 242.791 25.3923L240.715 24.0324C240.019 23.583 239.67 23.7643 239.67 24.5763V25.9836C239.67 26.6221 239.339 26.9493 238.675 26.9651H238.085C237.717 26.973 237.532 26.7995 237.532 26.4448L237.581 24.3871C237.582 24.2511 237.543 24.1177 237.467 24.0027C237.391 23.8878 237.283 23.7962 237.155 23.7389C237.027 23.6816 236.884 23.6609 236.744 23.6794C236.604 23.6979 236.472 23.7547 236.365 23.8432C235.448 24.6079 234.415 25.0494 233.269 25.1676C233.034 25.1913 232.799 25.1264 232.615 24.987C232.432 24.8476 232.313 24.6448 232.286 24.4226C232.13 23.1691 231.532 22.2782 230.492 21.75C230.049 21.5293 229.779 21.1864 229.681 20.7212C229.328 19.1051 228.509 18.0132 227.223 17.4456C226.789 17.2563 226.523 17.3864 226.424 17.8358L226.191 18.9237C226.068 19.5071 226.306 19.858 226.904 19.9762L227.813 20.1654C228.501 20.3073 228.689 20.6818 228.378 21.2888L226.879 24.257C226.641 24.7222 226.256 24.9311 225.724 24.8838C224.766 24.805 224.274 24.3004 224.249 23.3701C224.245 23.2893 224.219 23.2109 224.174 23.1428C224.129 23.0747 224.065 23.0192 223.991 22.9821C223.916 22.945 223.832 22.9274 223.748 22.9311C223.664 22.9349 223.583 22.9599 223.512 23.0035C222.832 23.445 222.378 24.0994 222.148 24.9666C222.107 25.1175 222.014 25.2508 221.885 25.3451C221.756 25.4395 221.598 25.4894 221.436 25.4869C220.969 25.4711 220.694 25.2346 220.612 24.7774C220.358 23.3898 219.629 22.5778 218.425 22.3413C217.991 22.2625 217.844 22.022 217.983 21.62C218.032 21.478 218.122 21.3716 218.253 21.3007C218.523 21.1509 218.552 20.9656 218.339 20.7449C217.807 20.2009 217.418 19.5584 217.172 18.8173C216.959 18.2024 217.094 18.1196 217.577 18.569C218.454 19.3889 218.794 20.2719 218.597 21.2179C218.54 21.4938 218.646 21.687 218.917 21.7973L222.099 23.0863C222.255 23.1511 222.431 23.1579 222.594 23.1057C222.757 23.0535 222.895 22.9457 222.984 22.8025L223.23 22.4123C223.247 22.3837 223.257 22.352 223.261 22.3194C223.265 22.2868 223.261 22.2541 223.251 22.2236C223.24 22.1932 223.223 22.1657 223.2 22.1431C223.177 22.1205 223.15 22.1034 223.119 22.093C221.644 21.5608 220.919 19.8461 221.448 18.4389C221.718 17.6899 221.485 17.1539 220.747 16.8306C220.379 16.6729 220.297 16.4246 220.502 16.0856C220.895 15.4392 221.489 14.9898 222.283 14.7375C222.881 14.5483 223.107 14.7493 222.959 15.3406C222.869 15.656 222.853 15.9831 222.91 16.3221C222.948 16.5538 223.068 16.7652 223.25 16.9189C223.433 17.0725 223.665 17.1586 223.905 17.1617L225.761 17.1736C226.269 17.1815 226.551 16.941 226.609 16.4522C226.715 15.451 227.129 14.5128 227.85 13.6377C228.104 13.3303 228.427 13.2081 228.82 13.2711C229.443 13.3736 230.053 13.3382 230.651 13.1647C230.823 10.8588 232.937 9.39238 231.229 6.9445C230.999 6.62127 231.04 6.33745 231.352 6.09306C233.514 4.39019 233.522 2.53359 231.376 0.523255C230.532 -0.265112 230.397 -0.162631 230.971 0.830712C232.183 2.93565 232.105 4.55181 230.737 5.67918C229.713 6.51485 228.82 7.49242 228.059 8.6119C227.952 8.76957 227.805 8.83264 227.616 8.80111C227.477 8.78534 227.375 8.71833 227.309 8.60008C227.283 8.55267 227.268 8.50035 227.265 8.44681C227.263 8.39327 227.272 8.33981 227.293 8.2902C227.314 8.24059 227.347 8.19605 227.388 8.15969C227.428 8.12333 227.477 8.09604 227.53 8.07975C228.603 7.74864 228.857 7.16525 228.292 6.32958C228.104 6.05365 228.149 5.82107 228.427 5.63186C228.526 5.56091 228.603 5.48208 228.661 5.39536C228.677 5.36382 228.677 5.32835 228.661 5.28893C227.973 3.95659 226.867 3.25099 225.343 3.17216C224.991 3.14851 224.884 2.97902 225.024 2.66367C225.065 2.56906 225.114 2.47445 225.171 2.37985C225.22 2.30101 225.29 2.24978 225.38 2.22613C226.019 2.09211 226.301 1.7058 226.228 1.06722C226.224 1.0077 226.201 0.95133 226.162 0.905975C226.122 0.860619 226.068 0.828543 226.008 0.814219C225.947 0.799896 225.882 0.804038 225.822 0.826074C225.763 0.848111 225.711 0.886938 225.675 0.937137C224.544 2.56117 223.242 2.69126 221.767 1.32738C221.571 1.15394 221.354 1.12636 221.116 1.24461C221.01 1.2998 220.928 1.38257 220.87 1.49294C220.805 1.61908 220.825 1.7334 220.932 1.83589C221.472 2.34044 221.808 2.92776 221.939 3.59788C222.021 4.05513 222.279 4.39019 222.713 4.60305C223.721 5.09184 224.741 5.19827 225.773 4.92235C226.199 4.80409 226.596 4.86715 226.965 5.11154L227.493 5.46631C227.952 5.77377 227.919 6.02211 227.395 6.21132C226.543 6.5109 225.949 6.98392 225.613 7.63038C225.409 8.04033 225.45 8.42662 225.736 8.78927C226.531 9.79838 227.493 10.4173 228.624 10.6459C228.853 10.6932 228.939 10.8272 228.882 11.0479L228.796 11.3672C228.771 11.4618 228.71 11.4934 228.612 11.4618C227.145 10.9731 225.663 10.7405 224.163 10.7641C223.909 10.7641 223.668 10.8351 223.438 10.977C223.021 11.2372 223.053 11.4264 223.537 11.5446C224.413 11.7496 224.811 12.3448 224.729 13.3303C224.688 13.827 224.52 13.8703 224.225 13.4604C224.036 13.1923 223.803 12.9794 223.524 12.8218C223.358 12.7268 223.165 12.6817 222.97 12.6923C222.776 12.7028 222.588 12.7684 222.431 12.8809C221.874 13.2751 221.313 13.6102 220.747 13.8861C218.798 14.84 218.519 14.5049 219.912 12.8809C220.821 11.8087 221.464 10.6971 221.841 9.5461C221.972 9.13615 222.238 8.84447 222.64 8.67103C223.058 8.4897 223.332 8.19011 223.463 7.77228C223.619 7.28349 223.463 6.92873 222.996 6.70799C222.193 6.32169 221.673 5.71466 221.436 4.88687C221.41 4.8006 221.364 4.72092 221.302 4.6539C221.24 4.58688 221.164 4.53429 221.079 4.50009C220.993 4.4659 220.902 4.451 220.81 4.45655C220.719 4.4621 220.63 4.48794 220.551 4.5321L220.158 4.73313C219.584 5.04848 219.453 5.48996 219.764 6.05758C220.428 7.26379 220.805 8.36357 220.895 9.35691C220.936 9.77474 220.768 10.0861 220.391 10.2911C220.145 10.4251 219.871 10.4724 219.568 10.433C219.158 10.3699 218.859 10.165 218.671 9.8181C218.556 9.60524 218.503 9.37662 218.511 9.13222C218.528 8.69862 218.355 8.6119 217.995 8.87206C217.119 9.48699 216.774 10.2754 216.963 11.2372C217.307 12.9873 216.213 14.7139 214.714 15.6599C214.509 15.786 214.317 15.7663 214.137 15.6008C214.055 15.5219 213.985 15.4392 213.928 15.3524C213.887 15.2894 213.903 15.2578 213.977 15.2578C214.174 15.2578 214.337 15.2066 214.469 15.1041C214.665 14.9543 214.665 14.8085 214.469 14.6666L212.761 13.4131C212.63 13.3194 212.475 13.2612 212.313 13.2447C212.151 13.2282 211.987 13.2539 211.839 13.3192C211.691 13.3845 211.564 13.4869 211.471 13.6158C211.378 13.7446 211.322 13.8952 211.311 14.0516C211.229 15.384 211.388 16.7124 211.79 18.0368C212.134 19.1721 212.842 19.6609 213.916 19.5032C214.415 19.4322 214.768 19.6136 214.972 20.0472C215.963 22.0969 216.332 24.2452 216.078 26.4921C216.054 26.7759 215.906 26.8665 215.636 26.7641L215.132 26.5748C215.075 26.5536 215.025 26.5163 214.99 26.4678C214.955 26.4194 214.936 26.3619 214.935 26.3029C214.919 25.5066 215.12 24.801 215.538 24.1861C215.816 23.7761 215.787 23.3898 215.452 23.0272L215.058 22.5897C214.788 22.298 214.46 22.2112 214.075 22.3295L212.478 22.838C211.978 22.9878 211.818 22.8262 211.999 22.3531C212.564 20.8158 211.892 19.6175 209.984 18.7582C209.558 18.569 209.218 18.6636 208.964 19.042C208.677 19.4756 208.681 20.0235 208.976 20.6857C209.189 21.1588 209.058 21.277 208.583 21.0405C208.321 20.9144 208.185 20.7094 208.177 20.4256C208.169 20.2837 208.226 20.0945 208.349 19.8579C208.702 19.1563 208.661 18.5059 208.226 17.9067C207.989 17.5835 208.03 17.2958 208.349 17.0435C208.489 16.9331 208.648 16.8543 208.829 16.807C209.246 16.6966 209.361 16.4562 209.173 16.0856C208.542 14.8164 208.71 13.6456 209.676 12.5734C209.947 12.2739 210.016 11.9349 209.885 11.5565C209.713 11.0519 209.414 10.6025 208.988 10.2083C208.628 9.86935 208.259 9.85753 207.882 10.1729C207.719 10.3069 207.534 10.4015 207.329 10.4567C207.103 10.5185 206.864 10.5249 206.635 10.4753C206.405 10.4257 206.192 10.3218 206.015 10.1729C205.294 9.55006 204.487 9.3293 203.594 9.51063C203.418 9.54353 203.237 9.53719 203.065 9.49208C202.892 9.44697 202.733 9.3643 202.599 9.25047L199.035 6.21132C198.577 5.82502 198.384 5.91963 198.458 6.49514C198.507 6.82625 198.667 7.09823 198.937 7.31108C199.273 7.57913 199.318 7.88659 199.072 8.23347C198.941 8.42268 198.769 8.58036 198.556 8.7065C198.458 8.76505 198.346 8.79761 198.231 8.80089C198.116 8.80417 198.002 8.77804 197.901 8.72516C197.8 8.67228 197.715 8.59454 197.655 8.49986C197.596 8.40518 197.563 8.29694 197.561 8.18618C197.544 7.87872 197.434 7.61461 197.229 7.39387C196.95 7.09429 196.643 7.06276 196.307 7.29927C195.587 7.80382 195.14 8.45028 194.968 9.23865C194.812 9.96395 195.099 10.2083 195.828 9.97182L196.234 9.82992C196.341 9.79484 196.455 9.78515 196.566 9.8017C196.678 9.81825 196.783 9.86053 196.873 9.92482C196.963 9.9891 197.035 10.0734 197.082 10.1703C197.129 10.2672 197.15 10.3737 197.143 10.4803C197.11 11.4185 197.127 12.4315 197.192 13.5195C197.233 14.1581 197.536 14.5286 198.101 14.6311C198.568 14.7178 198.888 14.5483 199.06 14.1226C199.355 13.3894 199.781 12.7745 200.338 12.2778C200.829 11.8442 201.132 11.9428 201.247 12.5734C201.714 15.0805 202.472 17.4416 203.52 19.6569C203.758 20.1536 203.598 20.3507 203.041 20.2482C201.976 20.0669 201.022 20.055 200.178 20.2127ZM205.523 12.81C206.342 13.0149 206.772 13.6693 206.813 14.773C206.83 15.2381 206.666 15.3091 206.322 14.9858C205.372 14.1186 204.565 13.2357 203.901 12.3369C203.598 11.9349 203.696 11.7969 204.196 11.923C204.458 11.9861 204.667 12.128 204.823 12.3488C204.989 12.5773 205.238 12.741 205.523 12.81ZM186.256 20.9695C185.937 21.3953 185.568 21.7185 185.15 21.9392C184.765 22.1442 184.421 22.093 184.118 21.7855C183.782 21.4623 183.565 21.0996 183.467 20.6976C183.352 20.264 183.487 19.921 183.872 19.6688C184.773 19.0932 185.605 19.1445 186.367 19.8225C186.469 19.9135 186.597 19.9741 186.734 19.9972C186.871 20.0203 187.013 20.0048 187.141 19.9526C187.714 19.7082 188.259 19.7436 188.775 20.059C189.316 20.3901 189.414 20.8158 189.07 21.3361L187.387 23.9378C187.043 24.466 186.613 24.5408 186.096 24.1624C185.761 23.918 185.564 23.5948 185.507 23.1927C185.458 22.8774 185.584 22.6567 185.888 22.5305C186.535 22.2625 186.854 21.8052 186.846 21.1588C186.838 20.536 186.641 20.4729 186.256 20.9695ZM203.569 22.6842C203.422 22.4872 203.356 22.2546 203.373 21.9865C203.38 21.9201 203.407 21.8571 203.45 21.8047C203.493 21.7523 203.551 21.7127 203.617 21.6904C203.682 21.6682 203.753 21.6642 203.821 21.6789C203.888 21.6937 203.95 21.7265 203.999 21.7737C204.344 22.1166 204.54 22.6724 204.479 23.1927C204.364 24.0521 204.45 24.8798 204.737 25.6761C204.868 26.0545 205.126 26.3186 205.511 26.4684C205.879 26.6103 206.269 26.6852 206.678 26.6931C207.26 26.7089 207.334 26.902 206.899 27.2725C206.785 27.375 206.65 27.4184 206.494 27.4026C204.405 27.2292 203.528 26.0309 203.864 23.8077C203.93 23.3898 203.832 23.0154 203.569 22.6842ZM242.88 29.6362C242.625 29.5261 242.453 29.2623 242.403 28.9031C242.353 28.5438 242.428 28.1184 242.613 27.7205C242.798 27.3226 243.077 26.9847 243.389 26.7812C243.701 26.5777 244.019 26.5252 244.275 26.6354C244.531 26.7455 244.703 27.0093 244.753 27.3685C244.803 27.7278 244.727 28.1532 244.542 28.5511C244.357 28.9491 244.078 29.2869 243.767 29.4904C243.455 29.6939 243.136 29.7464 242.88 29.6362ZM220.502 26.563C221.239 26.8311 221.477 27.3238 221.214 28.0412C220.944 28.7901 220.448 29.3341 219.728 29.6731C219.277 29.886 218.925 29.7874 218.671 29.3775L217.712 27.8165C217.491 27.4539 217.545 27.1385 217.872 26.8705C218.593 26.2792 219.47 26.1767 220.502 26.563ZM255.85 32.471C255.722 32.3294 255.688 32.1182 255.756 31.8837C255.825 31.6492 255.99 31.4107 256.215 31.2206C256.441 31.0306 256.708 30.9045 256.959 30.8703C257.21 30.836 257.423 30.8962 257.552 31.0378C257.68 31.1794 257.714 31.3907 257.646 31.6252C257.577 31.8597 257.412 32.0982 257.187 32.2882C256.961 32.4783 256.694 32.6043 256.443 32.6386C256.192 32.6729 255.979 32.6126 255.85 32.471ZM283.03 50.5768C282.887 50.5881 282.74 50.4822 282.621 50.2825C282.502 50.0828 282.421 49.8055 282.396 49.5117C282.384 49.3662 282.385 49.2211 282.401 49.0845C282.417 48.9479 282.446 48.8227 282.487 48.7158C282.528 48.609 282.581 48.5227 282.641 48.4619C282.702 48.401 282.77 48.3668 282.84 48.3612C282.983 48.3499 283.13 48.4558 283.249 48.6556C283.368 48.8553 283.449 49.1325 283.474 49.4263C283.486 49.5718 283.485 49.717 283.469 49.8536C283.453 49.9901 283.424 50.1154 283.383 50.2222C283.342 50.329 283.289 50.4153 283.229 50.4762C283.168 50.537 283.1 50.5712 283.03 50.5768ZM219.28 51.6948C219.19 51.661 219.109 51.6075 219.041 51.5375C218.973 51.4674 218.921 51.3822 218.886 51.2866C218.851 51.1911 218.835 51.0871 218.838 50.9805C218.842 50.874 218.865 50.767 218.906 50.6658C218.988 50.4612 219.14 50.2922 219.328 50.1959C219.515 50.0996 219.723 50.0839 219.905 50.1523C219.995 50.1862 220.076 50.2396 220.144 50.3097C220.212 50.3797 220.264 50.4649 220.299 50.5605C220.334 50.656 220.35 50.76 220.347 50.8666C220.343 50.9731 220.32 51.0801 220.279 51.1814C220.196 51.3859 220.045 51.5549 219.857 51.6512C219.67 51.7475 219.462 51.7632 219.28 51.6948ZM279.408 52.8343C279.345 52.8195 279.29 52.7799 279.244 52.7177C279.198 52.6556 279.164 52.5721 279.143 52.472C279.121 52.3719 279.113 52.2573 279.119 52.1346C279.125 52.0119 279.144 51.8835 279.177 51.7568C279.209 51.6301 279.254 51.5075 279.307 51.3962C279.361 51.2848 279.424 51.1867 279.491 51.1076C279.558 51.0285 279.629 50.9699 279.699 50.9351C279.769 50.9003 279.838 50.89 279.9 50.9049C279.963 50.9197 280.019 50.9593 280.064 51.0215C280.11 51.0837 280.144 51.1671 280.166 51.2672C280.187 51.3673 280.195 51.4819 280.189 51.6046C280.184 51.7274 280.164 51.8557 280.132 51.9824C280.099 52.1091 280.055 52.2317 280.001 52.3431C279.947 52.4544 279.885 52.5525 279.818 52.6316C279.75 52.7107 279.68 52.7693 279.609 52.8041C279.539 52.8389 279.471 52.8492 279.408 52.8343ZM253.094 56.5013C253 56.3433 252.992 56.1473 253.069 55.9565C253.147 55.7657 253.306 55.5956 253.509 55.4837C253.61 55.4283 253.719 55.3889 253.83 55.3676C253.941 55.3464 254.052 55.3438 254.156 55.3599C254.26 55.3761 254.356 55.4107 254.437 55.4618C254.519 55.5129 254.585 55.5794 254.631 55.6577C254.725 55.8157 254.733 56.0116 254.656 56.2025C254.578 56.3933 254.419 56.5634 254.216 56.6753C254.115 56.7307 254.006 56.7701 253.895 56.7913C253.784 56.8126 253.673 56.8152 253.569 56.7991C253.465 56.7829 253.369 56.7483 253.288 56.6972C253.206 56.6461 253.14 56.5795 253.094 56.5013ZM259.244 57.2029L257.893 58.0189C257.426 58.2948 257.254 58.1765 257.377 57.6641C257.451 57.3645 257.545 57.0689 257.659 56.7772C257.766 56.517 257.962 56.3396 258.249 56.245C258.577 56.1268 258.88 56.1228 259.158 56.2332C259.256 56.2705 259.341 56.3333 259.404 56.4144C259.466 56.4955 259.504 56.5918 259.513 56.6925C259.522 56.7931 259.501 56.8942 259.454 56.9844C259.407 57.0746 259.334 57.1502 259.244 57.2029ZM232.322 60.6205C231.634 60.7703 231.208 60.5062 231.044 59.8282C230.93 59.3551 231.122 59.0832 231.622 59.0122C231.941 58.9649 232.212 59.0832 232.433 59.367C232.548 59.5246 232.609 59.7138 232.617 59.9346C232.625 60.2736 232.621 60.5771 232.605 60.8452C232.605 60.853 232.605 60.853 232.605 60.8452C232.523 60.6717 232.429 60.5968 232.322 60.6205Z" fill="black"/>
</svg>
